<svg width="14" height="15" viewBox="0 0 14 15" fill="none" xmlns="http://www.w3.org/2000/svg">
<path fill-rule="evenodd" clip-rule="evenodd" d="M8.06218 0.465337C7.44338 0.108071 6.68098 0.108071 6.06218 0.465337L2 2.81064C1.3812 3.1679 1 3.82816 1 4.54269V9.23329C1 9.94782 1.3812 10.6081 2 10.9653L6.06218 13.3106C6.68098 13.6679 7.44338 13.6679 8.06218 13.3106L12.1244 10.9653C12.7432 10.6081 13.1244 9.94782 13.1244 9.23329V4.54269C13.1244 3.82816 12.7432 3.1679 12.1244 2.81064L11.2023 2.2783L5.65437 5.82899C5.59693 5.86575 5.56218 5.92924 5.56218 5.99744V7.22743C5.56218 7.42531 5.30553 7.50302 5.19577 7.33837L4.66011 6.53489C4.60416 6.45097 4.49448 6.42184 4.40426 6.46695L3.85162 6.74327C3.71864 6.80976 3.56218 6.71306 3.56218 6.56438V5.00195C3.56218 4.93131 3.59944 4.8659 3.66022 4.82989L9.56309 1.33189L8.06218 0.465337Z" fill="#2A81FD"/>
</svg>
