<svg width="79" height="18" viewBox="0 0 79 18" fill="none" xmlns="http://www.w3.org/2000/svg">
<mask id="mask0_860_1538" style="mask-type:luminance" maskUnits="userSpaceOnUse" x="0" y="0" width="79" height="18">
<rect width="78.6" height="18" fill="white"/>
</mask>
<g mask="url(#mask0_860_1538)">
<path fill-rule="evenodd" clip-rule="evenodd" d="M10.9623 13.1015H10.9374L3.92643 1.7998H0V17.9998H3.46076V6.46916H3.529L9.40205 15.844C11.1006 18.2463 12.6719 17.9562 14.4 17.9859V1.7998H10.9623V13.1015Z" fill="#111111"/>
<path fill-rule="evenodd" clip-rule="evenodd" d="M25.7478 8.62423H21.535C20.1307 8.62423 19.4354 8.02079 19.4502 6.81577C19.4668 5.36102 20.3132 4.63504 21.9951 4.63504H27.4084C27.4333 4.63968 27.4573 4.63504 27.485 4.63504H27.5052V4.63132C30.0925 4.55891 29.9367 1.84437 29.9367 1.84437L29.9275 1.7998H27.4084L21.4907 1.80352C19.7637 1.80352 18.4756 2.15166 17.6291 2.84793C16.6739 3.63426 16.2 4.91262 16.2 6.67652C16.2 9.80047 17.8827 11.3601 21.2482 11.3601H25.0028C25.8059 11.3601 26.3997 11.5226 26.7805 11.8382C27.1595 12.1557 27.3439 12.6533 27.3273 13.3348C27.3162 14.0747 27.0516 14.589 26.538 14.8656C26.1738 15.068 25.5938 15.1683 24.8046 15.1683H16.8362V17.9998H25.3108C27.0516 17.9998 28.3471 17.6498 29.1935 16.9498C30.1423 16.1811 30.6135 14.9195 30.5997 13.1742C30.584 11.2079 30.0501 9.90073 28.998 9.24995C28.324 8.83404 27.2397 8.62423 25.7478 8.62423Z" fill="#111111"/>
<path fill-rule="evenodd" clip-rule="evenodd" d="M48.9598 4.2002C48.4775 4.2002 48.0215 4.26296 47.5891 4.39037C46.4929 4.71544 45.6092 5.26346 44.9455 6.03632C44.247 4.80912 43.0098 4.2002 41.2311 4.2002C40.3671 4.2002 39.5257 4.40629 38.7116 4.82785C38.0478 5.16416 37.5402 5.55012 37.1923 5.98667V4.53651H34.2V16.2849C34.2 16.787 34.3551 17.1964 34.6728 17.5187C34.9878 17.84 35.4071 18.0002 35.9204 18.0002C36.4196 18.0002 36.8304 17.84 37.1547 17.5187C37.4781 17.1964 37.6398 16.787 37.6398 16.2849V8.72025C37.6906 8.5254 37.7978 8.33242 37.9651 8.13663C38.5132 7.38157 39.2691 7.0031 40.2346 7.0031C40.4987 7.0031 40.7497 7.04338 40.981 7.12301C41.7124 7.38157 42.0791 8.05887 42.0791 9.15587V16.2849C42.0791 16.787 42.2351 17.1964 42.5519 17.5187C42.8669 17.84 43.2843 18.0002 43.8004 18.0002C43.9819 18.0002 44.1642 17.9693 44.3485 17.9046C45.1316 17.6779 45.519 17.1393 45.519 16.2849V8.72025C45.5876 8.5254 45.6938 8.33242 45.8424 8.13663C46.4083 7.38157 47.1651 7.0031 48.1137 7.0031C48.3788 7.0031 48.6279 7.04338 48.8629 7.12301C49.5934 7.38157 49.9582 8.05887 49.9582 9.15587V16.2849C49.9582 16.787 50.1152 17.1964 50.4348 17.5187C50.7507 17.84 51.1625 18.0002 51.6795 18.0002C52.1957 18.0002 52.6103 17.84 52.9261 17.5187C53.242 17.1964 53.4 16.787 53.4 16.2849V8.72025C53.4 7.22044 52.9938 6.07567 52.1769 5.28688C51.4304 4.55993 50.3587 4.2002 48.9598 4.2002Z" fill="#DC0A0A"/>
<path fill-rule="evenodd" clip-rule="evenodd" d="M65.1432 4.53477L64.8433 5.33231C63.8895 4.57694 62.0283 4.2002 60.5924 4.2002C58.6694 4.2002 57.1062 4.80468 55.9036 6.00614C54.6345 7.29477 54 9.05105 54 11.2722C54 13.4952 54.5757 15.1915 55.7262 16.3686C56.7947 17.4594 58.2924 17.9946 60.2221 17.9983L60.223 18.0002H62.0235C62.874 18.0002 63.5645 17.3301 63.5655 16.5035C63.5674 15.675 62.876 15.0022 62.0235 15.0022H61.3301C59.8672 14.9112 58.7292 14.5542 58.2239 13.8953C57.654 13.1709 57.3473 12.4952 57.3473 11.1588C57.3473 10.3678 57.5421 9.73144 57.7099 9.18506C58.2114 7.65465 59.4294 6.90396 60.9656 6.90396C61.3668 6.90396 61.7265 6.95176 62.0437 7.04642C63.0795 7.37162 64.2647 8.16822 64.2647 9.43717V16.3114C64.2647 16.8118 64.4276 17.2148 64.7545 17.5288C65.0805 17.8427 65.5019 18.0002 66.0188 18.0002C66.1182 18.0002 66.23 17.9927 66.3467 17.9777C67.3169 17.8315 67.8 17.2767 67.8 16.3114V4.53477H65.1432Z" fill="#DC0A0A"/>
<path fill-rule="evenodd" clip-rule="evenodd" d="M73.2 0V16.3806C73.2 17.1258 72.8304 17.6184 72.0842 17.8629C71.8425 17.9531 71.5997 18 71.356 18C70.8176 18 70.3841 17.8484 70.0465 17.5435C69.7108 17.2404 69.6 16.8524 69.6 16.3806V0H73.2Z" fill="#DC0A0A"/>
<path fill-rule="evenodd" clip-rule="evenodd" d="M78.6 0V16.3806C78.6 17.1258 78.2304 17.6184 77.4842 17.8629C77.2425 17.9531 76.9998 18 76.756 18C76.2176 18 75.7841 17.8484 75.4465 17.5435C75.1109 17.2404 75 16.8524 75 16.3806V0H78.6Z" fill="#DC0A0A"/>
</g>
</svg>
