<svg width="24" height="24" viewBox="0 0 24 24" fill="none" xmlns="http://www.w3.org/2000/svg">
<path d="M17 8.5C18.3333 10.5737 18.3333 13.4263 17 15.5" stroke="white" stroke-width="1.5" stroke-linecap="round" stroke-linejoin="round"/>
<path d="M20 6.5C22.6667 9.75769 22.6667 14.2423 20 17.5" stroke="white" stroke-width="1.5" stroke-linecap="round" stroke-linejoin="round"/>
<path d="M6.08531 16.2377L6.54143 15.6424C6.41053 15.5421 6.25022 15.4877 6.08531 15.4877V16.2377ZM6.08564 7.76194V8.51194C6.25055 8.51194 6.41085 8.45759 6.54176 8.35731L6.08564 7.76194ZM10.5878 4.31277L10.1316 3.7174V3.7174L10.5878 4.31277ZM10.5878 19.6872L11.0439 19.0918L10.5878 19.6872ZM6.08531 15.4877H3.5V16.9877H6.08531V15.4877ZM3.5 15.4877C3.08579 15.4877 2.75 15.152 2.75 14.7377H1.25C1.25 15.9804 2.25736 16.9877 3.5 16.9877V15.4877ZM2.75 14.7377V9.26194H1.25V14.7377H2.75ZM2.75 9.26194C2.75 8.84773 3.08579 8.51194 3.5 8.51194V7.01194C2.25736 7.01194 1.25 8.0193 1.25 9.26194H2.75ZM3.5 8.51194H6.08564V7.01194H3.5V8.51194ZM6.54176 8.35731L11.0439 4.90813L10.1316 3.7174L5.62952 7.16658L6.54176 8.35731ZM11.0439 4.90813C11.5373 4.53011 12.25 4.88191 12.25 5.50349H13.75C13.75 3.63875 11.6119 2.58335 10.1316 3.7174L11.0439 4.90813ZM12.25 5.50349V18.4965H13.75V5.50349H12.25ZM12.25 18.4965C12.25 19.118 11.5373 19.4698 11.0439 19.0918L10.1316 20.2825C11.6119 21.4166 13.75 20.3612 13.75 18.4965H12.25ZM11.0439 19.0918L6.54143 15.6424L5.62919 16.8331L10.1316 20.2825L11.0439 19.0918Z" fill="white"/>
</svg>
