<svg width="24" height="24" viewBox="0 0 24 24" fill="none" xmlns="http://www.w3.org/2000/svg">
<path d="M17 10L22 15" stroke="#9E9E9E" stroke-width="1.5" stroke-linecap="round"/>
<path d="M22 10L17 15" stroke="#9E9E9E" stroke-width="1.5" stroke-linecap="round"/>
<path d="M6.08528 16.2377L6.5414 15.6424C6.4105 15.5421 6.25019 15.4877 6.08528 15.4877V16.2377ZM6.08563 7.76193V8.51193C6.25054 8.51193 6.41085 8.45758 6.54175 8.35729L6.08563 7.76193ZM10.5877 4.31277L10.1316 3.71741V3.71741L10.5877 4.31277ZM10.5877 19.6872L10.1316 20.2825L10.5877 19.6872ZM6.08528 15.4877H3.5V16.9877H6.08528V15.4877ZM3.5 15.4877C3.08579 15.4877 2.75 15.1519 2.75 14.7377H1.25C1.25 15.9804 2.25736 16.9877 3.5 16.9877V15.4877ZM2.75 14.7377V9.26193H1.25V14.7377H2.75ZM2.75 9.26193C2.75 8.84772 3.08579 8.51193 3.5 8.51193V7.01193C2.25736 7.01193 1.25 8.01929 1.25 9.26193H2.75ZM3.5 8.51193H6.08563V7.01193H3.5V8.51193ZM6.54175 8.35729L11.0438 4.90813L10.1316 3.71741L5.62951 7.16657L6.54175 8.35729ZM11.0438 4.90813C11.5373 4.53011 12.25 4.88191 12.25 5.50349H13.75C13.75 3.63875 11.6119 2.58335 10.1316 3.71741L11.0438 4.90813ZM12.25 5.50349V18.4964H13.75V5.50349H12.25ZM12.25 18.4964C12.25 19.118 11.5373 19.4698 11.0438 19.0918L10.1316 20.2825C11.6119 21.4166 13.75 20.3612 13.75 18.4964H12.25ZM11.0438 19.0918L6.5414 15.6424L5.62916 16.8331L10.1316 20.2825L11.0438 19.0918Z" fill="#9E9E9E"/>
</svg>
