<svg width="64" height="64" viewBox="0 0 64 64" fill="none" xmlns="http://www.w3.org/2000/svg">
<path opacity="0.5" d="M64 32C64 49.6731 49.6731 64 32 64C14.3269 64 0 49.6731 0 32C0 14.3269 14.3269 0 32 0C49.6731 0 64 14.3269 64 32Z" fill="black"/>
<mask id="mask0_1360_35017" style="mask-type:alpha" maskUnits="userSpaceOnUse" x="21" y="21" width="24" height="24">
<rect x="21" y="21" width="24" height="24" fill="#D9D9D9"/>
</mask>
<g mask="url(#mask0_1360_35017)">
<path d="M41.1564 31.2869C42.447 32.0644 42.447 33.9356 41.1564 34.7131L29.7821 41.5656C28.4491 42.3687 26.75 41.4087 26.75 39.8525L26.75 26.1475C26.75 24.5913 28.4491 23.6313 29.7821 24.4344L41.1564 31.2869Z" fill="white"/>
</g>
</svg>
