<svg width="50" height="53" viewBox="0 0 50 53" fill="none" xmlns="http://www.w3.org/2000/svg">
<path d="M25.0058 0C38.8141 0 50 11.1395 50 24.8666C50 38.5938 38.8025 49.7333 25.0058 49.7333C16.2103 49.7333 8.48225 45.2195 4.02646 38.3965C1.48526 34.4977 0 29.8562 0 24.8666C0.0116036 11.1395 11.2091 0 25.0058 0Z" fill="#2A81FD"/>
<path d="M31.1331 19.7891H26.9143V18.5C26.9143 16.7227 27.9104 16.0195 29.7659 16C30.0784 16.0195 30.6838 16.0391 31.5237 16.1172V11.7422C30.5081 11.5078 29.3948 11.3906 28.0862 11.3906C23.8284 11.3906 21.1331 13.7148 21.1331 18.1875V19.7891H18.1252V24.125H21.1331V41H26.9143V24.125H31.1331V19.7891Z" fill="white"/>
</svg>
