<svg width="52" height="53" viewBox="0 0 52 53" fill="none" xmlns="http://www.w3.org/2000/svg">
<rect y="0.5" width="52" height="52" rx="26" fill="#ECECEC"/>
<path fill-rule="evenodd" clip-rule="evenodd" d="M25.4379 24.6842C25.4379 24.0302 25.9545 23.5 26.5917 23.5H26.7692C29.1058 23.5 31 25.444 31 27.8421V34.1579C31 36.556 29.1058 38.5 26.7692 38.5H25.2308C22.8942 38.5 21 36.556 21 34.1579V30.6963C21 30.0423 21.5166 29.5121 22.1538 29.5121C22.7911 29.5121 23.3077 30.0423 23.3077 30.6963V34.1579C23.3077 35.2479 24.1687 36.1316 25.2308 36.1316H26.7692C27.8313 36.1316 28.6923 35.2479 28.6923 34.1579V27.8421C28.6923 26.7521 27.8313 25.8684 26.7692 25.8684H26.5917C25.9545 25.8684 25.4379 25.3382 25.4379 24.6842Z" fill="#9E9E9E"/>
<path fill-rule="evenodd" clip-rule="evenodd" d="M27.5621 28.3158C27.5621 28.9698 27.0455 29.5 26.4083 29.5H26.2308C23.8942 29.5 22 27.556 22 25.1579V18.8421C22 16.444 23.8942 14.5 26.2308 14.5H27.7692C30.1058 14.5 32 16.444 32 18.8421V22.3037C32 22.9577 31.4834 23.4879 30.8462 23.4879C30.2089 23.4879 29.6923 22.9577 29.6923 22.3037V18.8421C29.6923 17.7521 28.8313 16.8684 27.7692 16.8684H26.2308C25.1687 16.8684 24.3077 17.7521 24.3077 18.8421V25.1579C24.3077 26.2479 25.1687 27.1316 26.2308 27.1316H26.4083C27.0455 27.1316 27.5621 27.6618 27.5621 28.3158Z" fill="#9E9E9E"/>
</svg>
