<svg width="50" height="51" viewBox="0 0 50 51" fill="none" xmlns="http://www.w3.org/2000/svg">
<path d="M25.0058 0.5C38.8141 0.5 50 11.6993 50 25.5C50 39.3007 38.8025 50.5 25.0058 50.5C16.2103 50.5 8.48225 45.962 4.02646 39.1024C1.48526 35.1827 0 30.5163 0 25.5C0.0116036 11.6993 11.2091 0.5 25.0058 0.5Z" fill="#FAE100"/>
<path d="M26.1592 14.8535C19.696 14.8535 14.4595 19.0758 14.4595 24.2888C14.6246 27.8034 16.7829 30.9171 20.0027 32.3088C19.755 33.2405 19.1181 35.6819 18.9884 36.2126C18.8233 36.8613 19.2243 36.8495 19.4719 36.6844L23.9773 33.559C24.6967 33.6651 25.4279 33.7241 26.1474 33.7241C32.6105 33.7241 37.8471 29.5018 37.8471 24.2888C37.8471 19.0758 32.6105 14.8535 26.1474 14.8535" fill="#381E1F"/>
</svg>
