<svg width="20" height="20" viewBox="0 0 20 20" fill="none" xmlns="http://www.w3.org/2000/svg">
<path d="M10 6.5C8.067 6.5 6.5 8.067 6.5 10C6.5 11.933 8.067 13.5 10 13.5C11.933 13.5 13.5 11.933 13.5 10C13.5 8.067 11.933 6.5 10 6.5Z" fill="#757575"/>
<path d="M18.601 9.49913C18.8458 9.79193 18.8458 10.2081 18.601 10.5009C17.4671 11.8572 14.0452 15.5 10 15.5C5.95477 15.5 2.53289 11.8572 1.39902 10.5009C1.15424 10.2081 1.15424 9.79193 1.39902 9.49913C2.53288 8.14281 5.95477 4.5 10 4.5C14.0452 4.5 17.4671 8.14281 18.601 9.49913Z" stroke="#757575"/>
<path d="M17.1201 4.5L5.12012 16.5" stroke="#757575" stroke-width="1.5" stroke-linecap="round"/>
<path d="M15 4.5L3 16.5" stroke="white" stroke-width="1.5" stroke-linecap="round"/>
</svg>
