<svg width="35" height="36" viewBox="0 0 35 36" fill="none" xmlns="http://www.w3.org/2000/svg">
<path d="M6.09551 28.771C9.46196 28.771 12.191 25.9838 12.191 22.5457C12.191 19.1075 9.46196 16.3203 6.09551 16.3203C2.72905 16.3203 0 19.1075 0 22.5457C0 25.9838 2.72905 28.771 6.09551 28.771Z" fill="#593822"/>
<path d="M28.9046 28.771C32.271 28.771 35.0001 25.9838 35.0001 22.5457C35.0001 19.1075 32.271 16.3203 28.9046 16.3203C25.5381 16.3203 22.8091 19.1075 22.8091 22.5457C22.8091 25.9838 25.5381 28.771 28.9046 28.771Z" fill="#593822"/>
<path d="M17.3508 32.1814C24.8178 32.1814 30.871 25.2135 30.871 16.6181C30.871 8.02265 24.8178 1.05469 17.3508 1.05469C9.88378 1.05469 3.83057 8.02265 3.83057 16.6181C3.83057 25.2135 9.88378 32.1814 17.3508 32.1814Z" fill="#FFD2B3" stroke="#EAAF98" stroke-miterlimit="10"/>
<path d="M11.5068 16.0466C11.5068 15.2658 10.8871 14.6328 10.1226 14.6328C9.35804 14.6328 8.73828 15.2658 8.73828 16.0466V17.2354C8.73828 18.0162 9.35804 18.6492 10.1226 18.6492C10.8871 18.6492 11.5068 18.0162 11.5068 17.2354V16.0466Z" fill="#6D442E"/>
<path d="M8.34864 22.0697C9.11315 22.0697 9.73291 21.4367 9.73291 20.6559C9.73291 19.8751 9.11315 19.2422 8.34864 19.2422H7.1846C6.42008 19.2422 5.80033 19.8751 5.80033 20.6559C5.80033 21.4367 6.42008 22.0697 7.1846 22.0697H8.34864Z" fill="#FCC3A9"/>
<path d="M24.4727 22.0697C25.2372 22.0697 25.8569 21.4367 25.8569 20.6559C25.8569 19.8751 25.2372 19.2422 24.4727 19.2422H23.3086C22.5441 19.2422 21.9243 19.8751 21.9243 20.6559C21.9243 21.4367 22.5441 22.0697 23.3086 22.0697H24.4727Z" fill="#FCC3A9"/>
<path d="M22.9111 16.0466C22.9111 15.2658 22.2914 14.6328 21.5268 14.6328C20.7623 14.6328 20.1426 15.2658 20.1426 16.0466V17.2354C20.1426 18.0162 20.7623 18.6492 21.5268 18.6492C22.2914 18.6492 22.9111 18.0162 22.9111 17.2354V16.0466Z" fill="#6D442E"/>
<path d="M11.4043 24.3516H20.056C18.8762 27.163 17.3032 27.5646 15.7301 27.5646C14.1571 27.5646 11.7976 26.7614 11.4043 24.3516Z" fill="#AF3723"/>
<path d="M12.9773 3.06578C10.6178 3.86905 6.68517 11.0985 6.68517 12.705H26.3481C28.3144 15.1148 28.3144 21.1394 26.3481 28.3688C33.0335 25.1557 33.0335 5.87723 24.7751 1.86088C16.5166 -2.15548 11.011 1.45924 9.43798 2.26251C7.86494 3.06578 0.660449 9.014 3.93236 21.541C3.93236 13.5083 7.47168 9.89358 8.65146 8.68868C9.43798 8.68868 11.7975 5.07396 11.7975 5.07396L12.9773 3.06578Z" fill="#6D442E"/>
<path d="M30.0845 22.342C31.4962 22.342 32.6407 20.6337 32.6407 18.5265C32.6407 16.4192 31.4962 14.7109 30.0845 14.7109C28.6728 14.7109 27.5283 16.4192 27.5283 18.5265C27.5283 20.6337 28.6728 22.342 30.0845 22.342Z" fill="#E12626" stroke="#D50F0F" stroke-miterlimit="10"/>
<path d="M29.2269 20.9434C28.4757 23.3893 27.8505 25.8996 26.7572 28.217C26.2145 29.3657 25.5656 30.4822 24.7005 31.41C23.8353 32.3378 22.8364 32.9242 21.696 33.386C20.1623 34.0086 18.5578 34.4584 16.9493 34.8159L17.5235 34.9725C17.614 35.0729 17.5825 35.0247 17.6022 35.089C17.6257 35.1613 17.5864 35.3661 17.6022 35.3822C17.5825 35.3661 18.3493 35.085 18.3965 35.0729C18.5971 35.0287 18.8016 35.0006 19.0022 35.0328C19.0336 35.0368 19.1988 35.089 19.0808 35.0528C19.1555 35.0769 19.1752 35.1372 19.0493 35.0207C19.6038 35.5468 20.4415 34.6994 19.8831 34.1692C19.4505 33.7596 18.778 33.7756 18.2392 33.8801C17.5707 34.0086 16.4381 34.3781 16.4578 35.2577C16.4617 35.4625 16.5443 35.6834 16.6937 35.828C17.0595 36.1854 17.7319 35.8802 18.1566 35.7758C19.1909 35.5187 20.2213 35.2175 21.228 34.856C22.9505 34.2375 24.5314 33.4423 25.7623 32.0245C26.9932 30.6067 27.8111 28.9158 28.4836 27.1808C29.2308 25.2529 29.7617 23.2488 30.3673 21.2727C30.5954 20.5297 29.455 20.2124 29.2308 20.9514L29.2269 20.9434Z" fill="#E12626"/>
<path d="M12.6827 18.5006C12.0378 18.6934 11.6721 19.3962 11.79 20.0549C11.908 20.7136 12.5451 21.1715 13.1822 21.2277C13.3867 21.2438 13.5833 21.0309 13.5754 20.8261C13.5636 20.5931 13.4024 20.4445 13.1822 20.4244C13.0957 20.4164 13.2608 20.4405 13.1822 20.4244C13.1546 20.4204 13.131 20.4124 13.1035 20.4084C13.0524 20.3963 13.0013 20.3642 12.9501 20.3561L12.9934 20.3762C12.9934 20.3762 12.9619 20.3602 12.9462 20.3521C12.9226 20.3401 12.899 20.324 12.8754 20.312C12.8558 20.2999 12.8361 20.2879 12.8204 20.2758C12.8086 20.2678 12.7968 20.2598 12.7889 20.2517C12.8282 20.2839 12.8361 20.2919 12.8164 20.2718C12.7771 20.2357 12.7378 20.1995 12.6985 20.1593C12.6867 20.1433 12.6631 20.1272 12.6552 20.1071C12.6906 20.1513 12.6945 20.1593 12.6709 20.1232L12.6552 20.0991C12.6395 20.075 12.6277 20.0509 12.6159 20.0268C12.5962 19.9907 12.5962 19.9425 12.6119 20.0268C12.6041 19.9746 12.5766 19.9224 12.5648 19.8702C12.5451 19.7939 12.5648 19.9585 12.5648 19.8702C12.5648 19.8461 12.5648 19.818 12.5648 19.7939C12.5648 19.7738 12.5648 19.7497 12.5648 19.7296C12.553 19.7698 12.5726 19.6372 12.5648 19.7296C12.5766 19.6814 12.5844 19.6372 12.6001 19.589C12.6001 19.589 12.6277 19.5288 12.6355 19.5207C12.6473 19.4966 12.6591 19.4766 12.6749 19.4525C12.6827 19.4404 12.6906 19.4324 12.6945 19.4203C12.7103 19.3962 12.7024 19.4043 12.6709 19.4484C12.667 19.4444 12.7653 19.348 12.7771 19.336C12.7063 19.3762 12.8322 19.2838 12.7771 19.336C12.7968 19.3239 12.8204 19.3079 12.84 19.2958L12.8636 19.2838C12.8951 19.2677 12.8951 19.2677 12.8636 19.2838C12.8322 19.2958 12.8322 19.2958 12.8636 19.2838C12.8794 19.2798 12.8951 19.2717 12.9108 19.2677C13.1075 19.2075 13.253 18.9826 13.1861 18.7737C13.1192 18.5649 12.9148 18.4283 12.7024 18.4926L12.6827 18.5006Z" fill="#CE8260"/>
<path d="M26.3483 12.7039C25.9551 11.4989 24.7753 9.49077 23.9888 8.6875C25.1685 11.4989 24.7753 13.1055 24.7753 13.1055L26.3483 12.7039Z" fill="#FFD2B3"/>
<path d="M10.0281 17.5238C10.571 17.5238 11.0112 17.0743 11.0112 16.5197C11.0112 15.9652 10.571 15.5156 10.0281 15.5156C9.48509 15.5156 9.04492 15.9652 9.04492 16.5197C9.04492 17.0743 9.48509 17.5238 10.0281 17.5238Z" fill="#41342E"/>
<path d="M21.4324 17.5238C21.9753 17.5238 22.4155 17.0743 22.4155 16.5197C22.4155 15.9652 21.9753 15.5156 21.4324 15.5156C20.8894 15.5156 20.4492 15.9652 20.4492 16.5197C20.4492 17.0743 20.8894 17.5238 21.4324 17.5238Z" fill="#41342E"/>
</svg>
