<svg width="14" height="14" viewBox="0 0 14 14" fill="none" xmlns="http://www.w3.org/2000/svg">
<path fill-rule="evenodd" clip-rule="evenodd" d="M11.2812 1.05937C11.2812 0.685203 11.584 0.377164 11.9729 0.337755L12.0575 0.333496C12.4863 0.333496 12.8339 0.658471 12.8339 1.05934L12.8339 3.85004C12.835 4.16338 12.6208 4.44201 12.303 4.541L9.31719 5.47154C8.91005 5.59819 8.47021 5.39223 8.33476 5.01156C8.1993 4.6309 8.41958 4.21965 8.82655 4.09306L10.6041 3.53839L10.4679 3.4253C9.58316 2.71412 8.46397 2.29947 7.29022 2.2554L7.08255 2.25149C4.21349 2.25094 1.8872 4.42513 1.88661 7.10762C1.88661 7.50852 1.53906 7.8335 1.1103 7.8335C0.681525 7.8335 0.333935 7.50851 0.333936 7.10812C0.330572 5.46907 1.01082 3.89337 2.23015 2.7158C4.62583 0.402199 8.45887 0.175493 11.1351 2.07496L11.2807 2.18125L11.2812 1.05937ZM12.1146 6.8927C12.1146 6.49181 12.4622 6.16683 12.8909 6.16683C13.3197 6.16683 13.6672 6.49181 13.6672 6.8922C13.6706 8.53124 12.9904 10.1069 11.771 11.2845C9.37537 13.5981 5.5423 13.8248 2.86609 11.9253L2.7199 11.8181L2.71996 12.941C2.71996 13.3151 2.41718 13.6232 2.0282 13.6626L1.94361 13.6668C1.51484 13.6668 1.16726 13.3419 1.16726 12.941L1.16726 10.1503C1.16622 9.83694 1.38034 9.5583 1.69822 9.45931L4.684 8.52878C5.09114 8.40213 5.53098 8.60809 5.66643 8.98875C5.80188 9.36942 5.58161 9.78066 5.17464 9.90725L3.39723 10.461L3.53323 10.575C4.41802 11.2862 5.53722 11.7008 6.71098 11.7449L6.91864 11.7488C9.78771 11.7494 12.114 9.57518 12.1146 6.8927Z" fill="black"/>
</svg>
