<svg width="20" height="20" viewBox="0 0 20 20" fill="none" xmlns="http://www.w3.org/2000/svg">
<mask id="mask0_754_18560" style="mask-type:luminance" maskUnits="userSpaceOnUse" x="0" y="0" width="20" height="20">
<rect width="20" height="20" fill="white"/>
</mask>
<g mask="url(#mask0_754_18560)">
<path fill-rule="evenodd" clip-rule="evenodd" d="M4.83226 17.6465C4.66906 17.1772 4.94914 16.6378 5.08989 16.1195C5.23243 15.591 5.39064 15.0386 5.49398 14.5189C3.5587 13.2177 1.66797 11.9204 1.66797 8.95375C1.66797 6.86828 2.87917 5.31238 4.16983 4.3343C5.57451 3.2706 7.32022 2.63886 9.46752 2.51555C11.8489 2.37884 14.1705 3.16173 15.5737 4.15284C17.1538 5.26763 18.6963 7.24669 18.2595 9.89941C17.9523 11.7636 16.7329 13.0553 15.2798 14.0097C13.8644 14.9392 11.8015 15.6185 9.65103 15.5008C9.36204 15.485 8.87564 15.3398 8.54781 15.3923C8.26452 15.437 7.88929 15.776 7.59139 15.9737C6.95319 16.3961 6.41298 16.7562 5.78832 17.1744C5.50752 17.3622 5.22815 17.6962 4.83226 17.6465Z" fill="#382A21"/>
</g>
</svg>
