<svg width="30" height="26" viewBox="0 0 30 26" fill="none" xmlns="http://www.w3.org/2000/svg">
<path d="M11.3477 5.06641V18.2296C11.3477 18.2296 11.3077 20.7155 10.4303 21.5563C9.55557 22.3999 8.80083 22.757 7.63805 22.757C6.47528 22.757 5.72321 22.3999 4.84579 21.5563C3.97104 20.7127 3.92837 18.2296 3.92837 18.2296V5.06641H0V18.1453C0 20.6086 0.386703 22.7992 2.17621 24.4415C3.87503 25.9993 7.63805 25.9993 7.63805 25.9993C7.63805 25.9993 11.4037 25.9993 13.0999 24.4415C14.8921 22.7964 15.2761 20.6086 15.2761 18.1453V5.06641H11.3451H11.3477Z" fill="#EA008B"/>
<path d="M29.9994 5.06732H25.191V0H22.1027V5.06732H17.2969V8.32649H22.1027V13.3938H25.191V8.32649H29.9994V5.06732Z" fill="#EA008B"/>
</svg>
