<svg width="49" height="48" viewBox="0 0 49 48" fill="none" xmlns="http://www.w3.org/2000/svg">
<mask id="mask0_2_8719" style="mask-type:alpha" maskUnits="userSpaceOnUse" x="0" y="0" width="49" height="48">
<rect x="0.5" width="48" height="48" rx="24" fill="#D9D9D9"/>
</mask>
<g mask="url(#mask0_2_8719)">
<path d="M44.7494 0H4.25058C2.17919 0 0.5 1.67919 0.5 3.75057V44.2493C0.5 46.3207 2.17919 47.9999 4.25058 47.9999H44.7494C46.8208 47.9999 48.5 46.3207 48.5 44.2493V3.75057C48.5 1.67919 46.8208 0 44.7494 0Z" fill="#E7322D"/>
<path d="M18.0436 16.1413C18.0436 14.8574 19.0655 13.8462 20.3517 13.8462H26.618C31.628 13.8462 34.654 16.7956 34.654 21.0636V21.123C34.654 25.9512 30.8752 28.4594 26.1643 28.4594H22.6548V32.7819C22.6548 34.0657 21.6328 35.077 20.3467 35.077C19.0605 35.077 18.0386 34.0657 18.0386 32.7819V16.1413H18.0436ZM26.3188 24.3699C28.627 24.3699 29.9779 22.9968 29.9779 21.2123V21.1528C29.9779 19.0956 28.5372 17.9902 26.2291 17.9902H22.6598V24.3699H26.3188Z" fill="white"/>
</g>
</svg>
