<svg width="20" height="20" viewBox="0 0 20 20" fill="none" xmlns="http://www.w3.org/2000/svg">
<path fill-rule="evenodd" clip-rule="evenodd" d="M14.5465 14.3624C14.2262 14.2772 13.8993 14.4756 13.8166 14.8053C13.8165 14.8056 13.8165 14.8059 13.8164 14.8062C13.7066 15.2449 13.58 15.6849 13.4402 16.1136C13.3348 16.4368 13.5039 16.7866 13.8178 16.895C14.1318 17.0034 14.4717 16.8295 14.5771 16.5064C14.7261 16.0497 14.8609 15.5812 14.9778 15.1138C15.0603 14.7839 14.8673 14.4475 14.5466 14.3625C14.5466 14.3625 14.5465 14.3625 14.5465 14.3624ZM10.2046 4.46859C9.97928 4.46859 9.75427 4.48293 9.53067 4.51148C9.20207 4.55375 8.96888 4.86216 9.00996 5.20034C9.05096 5.53853 9.35063 5.77844 9.67931 5.73624C9.85358 5.71395 10.0291 5.70276 10.2046 5.70284C12.5218 5.70546 14.3995 7.638 14.4021 10.0227C14.4021 10.8223 14.3542 11.6212 14.2583 12.4147C14.2173 12.753 14.4505 13.0613 14.7792 13.1035C15.1078 13.1456 15.4074 12.9057 15.4484 12.5675C15.5503 11.7233 15.6014 10.8734 15.6014 10.0227C15.598 6.95661 13.1838 4.47198 10.2046 4.46859ZM7.68541 11.8863C7.36093 11.819 7.04469 12.0346 6.97851 12.3684C6.73565 13.6008 6.30008 14.7846 5.68897 15.8735C5.52316 16.1685 5.62121 16.546 5.90791 16.7166C6.19462 16.8873 6.56145 16.7864 6.72725 16.4914C6.7274 16.4911 6.72763 16.4907 6.72785 16.4903C7.40365 15.2861 7.88524 13.9768 8.15381 12.6138C8.21962 12.2799 8.00997 11.9541 7.68541 11.8863ZM10.2048 6.9374C8.54973 6.93933 7.20855 8.31961 7.2066 10.023C7.2066 10.3638 7.47509 10.6401 7.80624 10.6401C8.13747 10.6401 8.40589 10.3638 8.40589 10.023C8.40589 9.00054 9.21129 8.17166 10.2048 8.17166C11.1984 8.17166 12.0038 9.00054 12.0038 10.023C12.0099 12.4767 11.4848 14.901 10.4664 17.1195C10.3252 17.4279 10.4536 17.7956 10.7531 17.9409C11.0527 18.0863 11.41 17.9542 11.5512 17.6458C12.6452 15.2628 13.2094 12.6587 13.2031 10.023C13.2012 8.31961 11.8599 6.93933 10.2048 6.9374ZM10.2044 9.40524C9.87324 9.40524 9.60475 9.68148 9.60475 10.0224C9.60527 12.4265 9.01282 14.7914 7.88294 16.8956C7.72201 17.1935 7.82627 17.5692 8.11568 17.7349C8.40516 17.9005 8.77027 17.7932 8.93112 17.4952C8.93135 17.4949 8.9315 17.4945 8.93172 17.4942C10.1602 15.2068 10.8044 12.6359 10.804 10.0224C10.804 9.68148 10.5355 9.40524 10.2044 9.40524ZM7.58145 6.65005C7.83982 6.43683 7.88142 6.04843 7.67424 5.78253C7.46714 5.51654 7.08974 5.47381 6.83129 5.68695C5.54955 6.73892 4.80441 8.33543 4.80779 10.0227C4.81191 11.4508 4.49155 12.8601 3.87241 14.1383C3.72453 14.4432 3.84483 14.8138 4.14113 14.966C4.43743 15.1183 4.79752 14.9944 4.94541 14.6894C4.94571 14.6889 4.94593 14.6883 4.94623 14.6877C5.64827 13.239 6.01158 11.6415 6.00708 10.0227C6.00453 8.71018 6.58431 7.46829 7.58145 6.65005ZM18 10.0227C18.0003 11.5128 17.8599 12.9996 17.5808 14.4618C17.5165 14.7961 17.201 15.0134 16.8761 14.9472C16.5517 14.8811 16.3406 14.5571 16.4042 14.2231C16.6683 12.8395 16.801 11.4327 16.8007 10.0227C16.8007 6.27345 13.8475 3.23425 10.2046 3.23425C6.56168 3.23425 3.60849 6.27345 3.60849 10.0227C3.60954 10.9335 3.45948 11.8379 3.16476 12.6967C3.05375 13.0179 2.71075 13.1856 2.39878 13.0713C2.08772 12.9573 1.92469 12.606 2.03397 12.2854C2.28328 11.5586 2.41018 10.7934 2.4092 10.0227C2.4092 5.59183 5.89937 2 10.2046 2C14.5099 2 18 5.59183 18 10.0227Z" fill="white"/>
<mask id="mask0_754_18597" style="mask-type:luminance" maskUnits="userSpaceOnUse" x="2" y="2" width="16" height="16">
<path fill-rule="evenodd" clip-rule="evenodd" d="M14.5465 14.3624C14.2262 14.2772 13.8993 14.4756 13.8166 14.8053C13.8165 14.8056 13.8165 14.8059 13.8164 14.8062C13.7066 15.2449 13.58 15.6849 13.4402 16.1136C13.3348 16.4368 13.5039 16.7866 13.8178 16.895C14.1318 17.0034 14.4717 16.8295 14.5771 16.5064C14.7261 16.0497 14.8609 15.5812 14.9778 15.1138C15.0603 14.7839 14.8673 14.4475 14.5466 14.3625C14.5466 14.3625 14.5465 14.3625 14.5465 14.3624ZM10.2046 4.46859C9.97928 4.46859 9.75427 4.48293 9.53067 4.51148C9.20207 4.55375 8.96888 4.86216 9.00996 5.20034C9.05096 5.53853 9.35063 5.77844 9.67931 5.73624C9.85358 5.71395 10.0291 5.70276 10.2046 5.70284C12.5218 5.70546 14.3995 7.638 14.4021 10.0227C14.4021 10.8223 14.3542 11.6212 14.2583 12.4147C14.2173 12.753 14.4505 13.0613 14.7792 13.1035C15.1078 13.1456 15.4074 12.9057 15.4484 12.5675C15.5503 11.7233 15.6014 10.8734 15.6014 10.0227C15.598 6.95661 13.1838 4.47198 10.2046 4.46859ZM7.68541 11.8863C7.36093 11.819 7.04469 12.0346 6.97851 12.3684C6.73565 13.6008 6.30008 14.7846 5.68897 15.8735C5.52316 16.1685 5.62121 16.546 5.90791 16.7166C6.19462 16.8873 6.56145 16.7864 6.72725 16.4914C6.7274 16.4911 6.72763 16.4907 6.72785 16.4903C7.40365 15.2861 7.88524 13.9768 8.15381 12.6138C8.21962 12.2799 8.00997 11.9541 7.68541 11.8863ZM10.2048 6.9374C8.54973 6.93933 7.20855 8.31961 7.2066 10.023C7.2066 10.3638 7.47509 10.6401 7.80624 10.6401C8.13747 10.6401 8.40589 10.3638 8.40589 10.023C8.40589 9.00054 9.21129 8.17166 10.2048 8.17166C11.1984 8.17166 12.0038 9.00054 12.0038 10.023C12.0099 12.4767 11.4848 14.901 10.4664 17.1195C10.3252 17.4279 10.4536 17.7956 10.7531 17.9409C11.0527 18.0863 11.41 17.9542 11.5512 17.6458C12.6452 15.2628 13.2094 12.6587 13.2031 10.023C13.2012 8.31961 11.8599 6.93933 10.2048 6.9374ZM10.2044 9.40524C9.87324 9.40524 9.60475 9.68148 9.60475 10.0224C9.60527 12.4265 9.01282 14.7914 7.88294 16.8956C7.72201 17.1935 7.82627 17.5692 8.11568 17.7349C8.40516 17.9005 8.77027 17.7932 8.93112 17.4952C8.93135 17.4949 8.9315 17.4945 8.93172 17.4942C10.1602 15.2068 10.8044 12.6359 10.804 10.0224C10.804 9.68148 10.5355 9.40524 10.2044 9.40524ZM7.58145 6.65005C7.83982 6.43683 7.88142 6.04843 7.67424 5.78253C7.46714 5.51654 7.08974 5.47381 6.83129 5.68695C5.54955 6.73892 4.80441 8.33543 4.80779 10.0227C4.81191 11.4508 4.49155 12.8601 3.87241 14.1383C3.72453 14.4432 3.84483 14.8138 4.14113 14.966C4.43743 15.1183 4.79752 14.9944 4.94541 14.6894C4.94571 14.6889 4.94593 14.6883 4.94623 14.6877C5.64827 13.239 6.01158 11.6415 6.00708 10.0227C6.00453 8.71018 6.58431 7.46829 7.58145 6.65005ZM18 10.0227C18.0003 11.5128 17.8599 12.9996 17.5808 14.4618C17.5165 14.7961 17.201 15.0134 16.8761 14.9472C16.5517 14.8811 16.3406 14.5571 16.4042 14.2231C16.6683 12.8395 16.801 11.4327 16.8007 10.0227C16.8007 6.27345 13.8475 3.23425 10.2046 3.23425C6.56168 3.23425 3.60849 6.27345 3.60849 10.0227C3.60954 10.9335 3.45948 11.8379 3.16476 12.6967C3.05375 13.0179 2.71075 13.1856 2.39878 13.0713C2.08772 12.9573 1.92469 12.606 2.03397 12.2854C2.28328 11.5586 2.41018 10.7934 2.4092 10.0227C2.4092 5.59183 5.89937 2 10.2046 2C14.5099 2 18 5.59183 18 10.0227Z" fill="white"/>
</mask>
<g mask="url(#mask0_754_18597)">
</g>
</svg>
