<svg width="27" height="22" viewBox="0 0 27 22" fill="none" xmlns="http://www.w3.org/2000/svg">
<path d="M8.61293 13.1195L14.836 5.48362H11.4433C9.92501 5.48362 8.88472 5.95151 7.95688 7.02765L4.68603 11.0421V0H1.40581C0.627928 0 0 0.626967 0 1.40366V22H3.28022C4.04873 22 4.68603 21.373 4.68603 20.6057V15.1221L7.33833 18.3786L9.60636 21.1578C10.0656 21.7286 10.656 22 11.2746 22H15.8575L12.896 18.3692L8.61293 13.1195ZM22.9803 18.1165C22.2961 18.1165 21.7244 17.5457 21.7244 16.8533V0H18.4348C17.657 0 17.029 0.626967 17.029 1.3943V17.7329C17.029 20.2595 18.7722 22 21.3121 22H24.9203C25.6982 22 26.3261 21.3824 26.3261 20.6057V18.1165H22.9803Z" fill="#231F20"/>
<path d="M26.9994 4.25781L26.7089 4.56662C26.7089 4.56662 25.8091 5.46496 23.2881 5.46496H11.348C9.46426 5.46496 8.57392 6.23229 7.89913 7.06513L7.52425 7.52366C7.52425 7.52366 7.5055 7.54237 7.49613 7.55173L5.125 10.4713C5.98723 9.82565 7.16811 9.43263 8.36773 9.43263H23.2881C25.0313 9.43263 26.6901 8.92731 26.9432 7.6921C26.9994 7.50494 26.99 7.36458 26.99 7.36458V4.25781H26.9994Z" fill="#ED1C24"/>
</svg>
