<svg width="49" height="48" viewBox="0 0 49 48" fill="none" xmlns="http://www.w3.org/2000/svg">
<rect x="0.5" width="48" height="48" rx="24" fill="#FAE100"/>
<path fill-rule="evenodd" clip-rule="evenodd" d="M18.2971 33.1758C18.1013 32.6127 18.4374 31.9654 18.6063 31.3434C18.7774 30.7092 18.9672 30.0463 19.0912 29.4226C16.7689 27.8612 14.5 26.3045 14.5 22.7445C14.5 20.2419 15.9534 18.3749 17.5022 17.2012C19.1879 15.9247 21.2827 15.1666 23.8595 15.0187C26.7172 14.8546 29.503 15.7941 31.1869 16.9834C33.0829 18.3212 34.9341 20.696 34.4098 23.8793C34.0412 26.1163 32.5779 27.6663 30.8342 28.8117C29.1357 29.927 26.6603 30.7422 24.0797 30.601C23.7329 30.582 23.1492 30.4078 22.7558 30.4708C22.4159 30.5245 21.9656 30.9312 21.6081 31.1684C20.8423 31.6753 20.194 32.1074 19.4444 32.6093C19.1075 32.8346 18.7722 33.2355 18.2971 33.1758Z" fill="#382A21"/>
</svg>
