<svg width="56" height="56" viewBox="0 0 56 56" fill="none" xmlns="http://www.w3.org/2000/svg">
<path d="M14.3506 27.6123H44.9589V42.307C44.9589 45.4494 42.3089 47.9999 39.0339 47.9999H20.2756C17.0006 47.9999 14.3506 45.4494 14.3506 42.307V27.6123Z" fill="#6587FF"/>
<path d="M18.4423 22.5195L14.3506 27.6206H44.9589L40.8673 22.5195H18.4423Z" fill="#3A52D3"/>
<path d="M29.5581 10.7339L32.4581 16.4184L38.9498 17.3269L34.2581 21.7528L35.3665 28.0042L29.5665 25.0535L23.7665 28.0042L24.8748 21.7528L20.1748 17.3269L26.6665 16.4184L29.5665 10.7339H29.5581Z" fill="#FFC93F"/>
<path d="M30.1833 38.1729H28.8749V41.1651H26.7666V32.8301H30.1833C32.3083 32.8301 33.3666 33.9803 33.3666 35.514C33.3666 36.8893 32.3916 38.1729 30.1833 38.1729ZM30.0249 36.5559C30.8666 36.5559 31.2249 36.1558 31.2249 35.514C31.2249 34.8722 30.8666 34.4721 30.0249 34.4721H28.8749V36.5642H30.0249V36.5559Z" fill="white"/>
<path d="M11.6003 20.5021L10.5337 21.1021L9.66699 19.6188L10.7337 19.0188L11.6003 20.5021Z" fill="#6587FF"/>
<path d="M38.6001 11.6917L36.8418 10.5583L38.5418 8L40.3085 9.13333L38.6001 11.6917Z" fill="#6587FF"/>
<path d="M19.5502 10.6L18.0835 11.4334L16.9502 9.50838L18.4169 8.67505L19.5502 10.6Z" fill="#6587FF"/>
<path d="M46.3666 20.8272L45.5166 20.1439L46.3249 19.1855L47.1666 19.8772L46.3666 20.8272Z" fill="#6587FF"/>
</svg>
