<svg width="52" height="52" viewBox="0 0 52 52" fill="none" xmlns="http://www.w3.org/2000/svg">
<circle cx="26" cy="26" r="25" fill="white" stroke="#F20E0E" stroke-width="2"/>
<path d="M20.6807 17.6172H17.9385L13.3682 20.6133V23.2793L17.7607 20.4102H17.8623V36H20.6807V17.6172ZM31.6748 17.3633C27.6758 17.3379 25.0732 20.0801 25.0732 23.584C25.0732 27.1006 27.7139 29.627 31.0146 29.627C32.9951 29.627 34.7217 28.6875 35.7119 27.1387H35.9404C35.915 31.3408 34.252 33.8037 31.4209 33.8164C29.5674 33.8037 28.374 32.7246 27.9932 31.1758H25.2256C25.6699 34.1592 28.0312 36.2539 31.4209 36.2539C35.8262 36.2539 38.6064 32.5977 38.6064 26.1484C38.5938 19.4199 35.0518 17.3887 31.6748 17.3633ZM27.79 23.5332C27.7773 21.4258 29.4531 19.6992 31.6748 19.6992C33.9219 19.6992 35.5596 21.5146 35.5596 23.5078C35.5596 25.5391 33.8457 27.3545 31.624 27.3418C29.3896 27.3545 27.8027 25.666 27.79 23.5332Z" fill="#DC0A0A"/>
</svg>
