<svg width="20" height="20" viewBox="0 0 20 20" fill="none" xmlns="http://www.w3.org/2000/svg">
<path fill-rule="evenodd" clip-rule="evenodd" d="M14.7203 14.48C15.022 14.2134 15.0407 13.7634 14.762 13.4748C14.4833 13.1862 14.0128 13.1683 13.7111 13.4349C12.6376 14.3835 11.2408 14.9059 9.77826 14.9059C8.31569 14.9059 6.91897 14.3835 5.84542 13.4349C5.54365 13.1683 5.07324 13.1862 4.79453 13.4748C4.51585 13.7634 4.5345 14.2134 4.8362 14.48C6.18541 15.6721 7.94049 16.3286 9.77826 16.3286C11.616 16.3286 13.3711 15.6721 14.7203 14.48ZM11.2651 9.7699V4.71136C11.2651 4.31848 10.9322 4 10.5215 4C10.1107 4 9.77779 4.31848 9.77779 4.71136V9.7699C9.77779 9.98781 9.59245 10.1651 9.36464 10.1651H8.75869C8.34797 10.1651 8.01502 10.4836 8.01502 10.8765C8.01502 11.2693 8.34797 11.5878 8.75869 11.5878H9.36464C10.4126 11.5878 11.2651 10.7723 11.2651 9.7699ZM15.6639 6.70052V4.67184C15.6639 4.3008 15.3495 4 14.9616 4C14.5737 4 14.2592 4.3008 14.2592 4.67184V6.70052C14.2592 7.07156 14.5737 7.37236 14.9616 7.37236C15.3495 7.37236 15.6639 7.07156 15.6639 6.70052ZM4.76095 7.37236C4.37306 7.37236 4.05859 7.07156 4.05859 6.70052V4.67184C4.05859 4.3008 4.37306 4 4.76095 4C5.14884 4 5.4633 4.3008 5.4633 4.67184V6.70052C5.4633 7.07156 5.14884 7.37236 4.76095 7.37236Z" fill="white"/>
</svg>
