<svg width="56" height="56" viewBox="0 0 56 56" fill="none" xmlns="http://www.w3.org/2000/svg">
<path opacity="0.3" d="M31.7828 24.4751V44.0834C31.7828 46.7084 29.5745 48.8334 26.8578 48.8334H16.4328C13.7161 48.8334 11.5078 46.7084 11.5078 44.0834V24.4751C11.5078 21.8501 13.7161 19.7251 16.4328 19.7251H26.8578C29.5745 19.7251 31.7828 21.8501 31.7828 24.4751Z" fill="#00AE85"/>
<path opacity="0.6" d="M49.6666 16.6748V36.2831C49.6666 38.9081 47.4583 41.0331 44.7416 41.0331H34.3166C31.5999 41.0331 29.3916 38.9081 29.3916 36.2831V16.6748C29.3916 14.0498 31.5999 11.9248 34.3166 11.9248H44.7416C47.4583 11.9248 49.6666 14.0498 49.6666 16.6748Z" fill="#00AE85"/>
<path d="M40.7242 19.5083V39.1166C40.7242 41.7416 38.5159 43.8666 35.7992 43.8666H25.3742C22.6576 43.8666 20.4492 41.7416 20.4492 39.1166V19.5083C20.4492 16.8833 22.6576 14.7583 25.3742 14.7583H35.7992C38.5159 14.7583 40.7242 16.8833 40.7242 19.5083Z" fill="#00AE85"/>
<path d="M35.5659 14.7666C38.4159 14.7666 40.7242 16.9916 40.7242 19.7333H20.4492C20.4492 16.9916 22.7576 14.7666 25.6076 14.7666H35.5742H35.5659Z" fill="#008C6B"/>
<path d="M27.7745 30.3997C29.1079 30.3997 29.8412 29.483 29.8412 28.1164C29.8412 26.758 29.1162 25.8247 27.7745 25.8247C26.4329 25.8247 25.7412 26.758 25.7412 28.1164C25.7412 29.4747 26.4579 30.3997 27.7745 30.3997ZM27.1162 28.1164C27.1162 27.4747 27.3412 27.008 27.7745 27.008C28.2495 27.008 28.4662 27.4664 28.4662 28.1164C28.4662 28.7664 28.2329 29.208 27.7745 29.2164C27.3579 29.2164 27.1162 28.7747 27.1162 28.1164ZM27.1495 34.2247H28.6579L34.2912 26.1914H32.7829L27.1495 34.2247ZM31.6329 32.308C31.6329 33.6497 32.3495 34.5914 33.6662 34.5914C34.9829 34.5914 35.7245 33.6747 35.7245 32.308C35.7245 30.9414 35.0079 30.0164 33.6662 30.0164C32.3245 30.0164 31.6245 30.9497 31.6329 32.308ZM32.9995 32.308C32.9995 31.6747 33.2329 31.208 33.6662 31.208C34.1412 31.1997 34.3495 31.6497 34.3579 32.308C34.3579 32.9747 34.1162 33.3997 33.6662 33.408C33.2495 33.408 33.0079 32.9747 32.9995 32.308Z" fill="white"/>
<path d="M15.3164 8V13.1167" stroke="#008C6B" stroke-width="1.5" stroke-miterlimit="10"/>
<path d="M17.9331 10.5583H12.6914" stroke="#008C6B" stroke-width="1.5" stroke-miterlimit="10"/>
<path d="M44.8164 45.6582V48.8332" stroke="#008C6B" stroke-miterlimit="10"/>
<path d="M46.4414 47.2417H43.1914" stroke="#008C6B" stroke-miterlimit="10"/>
<path d="M7.29102 18.7915V20.6748" stroke="#008C6B" stroke-width="0.75" stroke-miterlimit="10"/>
<path d="M8.25801 19.7334H6.33301" stroke="#008C6B" stroke-width="0.75" stroke-miterlimit="10"/>
</svg>
