<svg width="20" height="20" viewBox="0 0 20 20" fill="none" xmlns="http://www.w3.org/2000/svg">
<mask id="mask0_754_18574" style="mask-type:luminance" maskUnits="userSpaceOnUse" x="0" y="0" width="20" height="20">
<rect width="20" height="20" fill="white"/>
</mask>
<g mask="url(#mask0_754_18574)">
<path fill-rule="evenodd" clip-rule="evenodd" d="M9.99989 9.65321C11.5118 9.65321 12.3958 8.60652 12.3958 7.24169V7.19592C12.3958 5.62531 11.4531 4.78365 9.94081 4.78365H7.60435V9.65321H9.99989ZM4.18164 3.73115C4.18164 2.76484 4.89599 2.00098 5.79853 2.00098H10.1887C13.6969 2.00098 15.8179 4.22533 15.8179 7.43915V7.48434C15.8179 11.124 13.1714 13.0122 9.87374 13.0122H7.41646V16.2708C7.41646 17.2371 6.70246 18.001 5.79853 18.001C4.89599 18.001 4.18164 17.2371 4.18164 16.2708V3.73115Z" fill="white"/>
</g>
</svg>
