<svg width="30" height="28" viewBox="0 0 30 28" fill="none" xmlns="http://www.w3.org/2000/svg">
<path fill-rule="evenodd" clip-rule="evenodd" d="M21.3756 18.3457C19.3902 17.0268 18.0677 16.6003 18.0677 15.6672C18.0677 15.1983 18.4563 14.5628 19.9035 14.5628C21.1695 14.5628 22.503 15.3217 23.2457 16.1439C23.256 16.1553 23.2721 16.1632 23.2878 16.1632C23.3211 16.1632 23.3466 16.1375 23.3466 16.1059V12.9689C22.6381 12.6657 21.1827 12.1057 19.2954 12.1057C15.2544 12.1057 13.6006 14.3865 13.6006 16.0886C13.6006 17.565 14.4946 18.4644 15.5921 19.2298C17.3329 20.4438 19.5848 21.1764 19.5848 22.5975C19.5848 23.3188 18.8427 24.5573 16.419 24.5573C13.6018 24.5573 10.0332 22.9798 8.23145 19.2221C8.8719 25.2266 13.587 27.8345 17.0501 27.8345C21.8677 27.8345 24.0675 24.9711 24.0675 22.5975C24.0675 20.9406 23.2602 19.5965 21.3756 18.3457Z" fill="white"/>
<path fill-rule="evenodd" clip-rule="evenodd" d="M8.30932 7.14844C6.85577 7.14844 5.69743 7.93428 5.0484 8.84621V7.51831H0.0589714C0.0265714 7.51831 0 7.54396 0 7.57649C0 7.59023 0.006 7.60281 0.0142286 7.61287C0.654514 8.33584 0.902057 8.61114 0.902057 10.3782V20.6242H5.0484V12.1678C5.0484 10.4617 5.95046 10.0583 6.59674 10.0583C7.24457 10.0583 8.14526 10.4617 8.14526 12.1678V15.7099C8.14526 18.5917 10.0018 20.4905 12.2914 21.5487V12.2045C12.2914 8.79373 10.8567 7.14844 8.30932 7.14844Z" fill="white"/>
<path fill-rule="evenodd" clip-rule="evenodd" d="M25.3155 23.8188C28.1794 21.3206 29.9839 17.6861 29.9839 13.639C29.9839 6.10601 23.7398 0 16.0389 0C11.8997 0 8.184 1.76568 5.62988 4.56534C8.09571 2.41588 11.3443 1.10709 14.9073 1.10709C22.6083 1.10709 28.8516 7.21327 28.8516 14.7441C28.8516 18.2297 27.5138 21.4073 25.3155 23.8188Z" fill="white"/>
</svg>
