<svg width="24" height="25" viewBox="0 0 24 25" fill="none" xmlns="http://www.w3.org/2000/svg">
<path d="M3 15.5L3 9.5C3 6.18629 5.68629 3.5 9 3.5L15 3.5C18.3137 3.5 21 6.18629 21 9.5V15.5C21 18.8137 18.3137 21.5 15 21.5H12.3028H9C5.68629 21.5 3 18.8137 3 15.5Z" stroke="#111111" stroke-width="1.5"/>
<path d="M11.1676 7.75058C11.5633 7.15606 12.4367 7.15606 12.8324 7.75058L13.8788 9.32246C14.0114 9.52167 14.211 9.66673 14.4414 9.73128L16.2597 10.2406C16.9474 10.4333 17.2173 11.264 16.7742 11.824L15.6026 13.3049C15.4541 13.4926 15.3778 13.7273 15.3877 13.9664L15.4651 15.8531C15.4944 16.5666 14.7878 17.08 14.1182 16.8317L12.3478 16.175C12.1234 16.0918 11.8766 16.0918 11.6522 16.175L9.88182 16.8317C9.21221 17.08 8.50561 16.5666 8.5349 15.8531L8.61234 13.9664C8.62216 13.7273 8.5459 13.4926 8.39741 13.3049L7.22579 11.824C6.78266 11.264 7.05256 10.4333 7.74027 10.2406L9.55855 9.73128C9.78899 9.66673 9.98864 9.52167 10.1212 9.32246L11.1676 7.75058Z" stroke="#111111" stroke-width="1.5" stroke-linecap="round"/>
</svg>
