<svg width="24" height="24" viewBox="0 0 24 24" fill="none" xmlns="http://www.w3.org/2000/svg">
<path d="M3 15L3 9C3 5.68629 5.68629 3 9 3L15 3C18.3137 3 21 5.68629 21 9V15C21 18.3137 18.3137 21 15 21H12.3028H9C5.68629 21 3 18.3137 3 15Z" stroke="#DC0A0A" stroke-width="1.5"/>
<path d="M11.1676 7.25058C11.5633 6.65606 12.4367 6.65606 12.8324 7.25058L13.8788 8.82246C14.0114 9.02167 14.211 9.16673 14.4414 9.23128L16.2597 9.74065C16.9474 9.9333 17.2173 10.764 16.7742 11.324L15.6026 12.8049C15.4541 12.9926 15.3778 13.2273 15.3877 13.4664L15.4651 15.3531C15.4944 16.0666 14.7878 16.58 14.1182 16.3317L12.3478 15.675C12.1234 15.5918 11.8766 15.5918 11.6522 15.675L9.88182 16.3317C9.21221 16.58 8.50561 16.0666 8.5349 15.3531L8.61234 13.4664C8.62216 13.2273 8.5459 12.9926 8.39741 12.8049L7.22579 11.324C6.78266 10.764 7.05256 9.9333 7.74027 9.74065L9.55855 9.23128C9.78899 9.16673 9.98864 9.02167 10.1212 8.82246L11.1676 7.25058Z" stroke="#DC0A0A" stroke-width="1.5" stroke-linecap="round"/>
</svg>
