<svg width="24" height="24" viewBox="0 0 24 24" fill="none" xmlns="http://www.w3.org/2000/svg">
<path d="M3.94946 9.02608C3.35394 9.42175 3 10.0638 3 10.7483V19.5951C3 20.3722 3.67157 21 4.5 21H8.3C8.85228 21 9.3 20.5523 9.3 20V16.8537C9.3 15.7491 10.1954 14.8537 11.3 14.8537H12.7C13.8046 14.8537 14.7 15.7491 14.7 16.8537V20C14.7 20.5523 15.1477 21 15.7 21H19.5C20.3284 21 21 20.3722 21 19.5951V10.7483C21 10.0638 20.6461 9.42175 20.0505 9.02608L13.1985 3.89711C12.488 3.36528 11.512 3.36528 10.8015 3.89711L3.94946 9.02608Z" stroke="#111111" stroke-width="1.5"/>
</svg>
