<svg width="56" height="56" viewBox="0 0 56 56" fill="none" xmlns="http://www.w3.org/2000/svg">
<path d="M40.442 18.9479L38.2587 18.2563L30.3337 18.9479H20.2253L13.792 26.7461L28.267 45.975L30.3337 46.6666L46.8753 26.7461L40.442 18.9479Z" fill="#E2AF2A"/>
<path d="M38.3746 18.2563H18.1579L11.7246 26.0546L28.2663 45.975L44.8079 26.0546L38.3746 18.2563Z" fill="#FFCE21"/>
<path d="M18.1667 18.2564H20.0084L14.1501 25.8796L28.2751 45.9667L11.7334 26.0463L18.1667 18.248V18.2564Z" fill="#FAC02C"/>
<path d="M24.7168 24.555V31.4117H26.4668V27.346H26.5251L28.0668 31.3617H29.1418L30.7001 27.371H30.7585V31.4034H32.5085V24.5466H30.2751L28.6585 28.5374H28.5751L26.9585 24.5466H24.7251L24.7168 24.555Z" fill="white"/>
<path d="M38.6084 37.2436C38.6084 36.7021 39.0417 36.2605 39.5834 36.2605H49.2001C49.9751 36.2605 50.4417 37.127 50.0167 37.7852L48.7001 39.793C48.4917 40.118 48.4834 40.5262 48.6917 40.8595L50.0834 43.0756C50.4917 43.7255 50.0251 44.5753 49.2584 44.5753H39.5917C39.0501 44.5753 38.6167 44.1337 38.6167 43.5922V37.2353L38.6084 37.2436Z" fill="#9568F9"/>
<path d="M20.6911 37.2439C20.6911 36.7023 20.2578 36.2607 19.7161 36.2607H10.0995C9.32446 36.2607 8.85779 37.1272 9.28279 37.7854L10.6078 39.7933C10.8161 40.1182 10.8245 40.5264 10.6161 40.8597L9.22446 43.0759C8.81613 43.7257 9.28279 44.5755 10.0495 44.5755H19.7161C20.2578 44.5755 20.6911 44.134 20.6911 43.5924V37.2355V37.2439Z" fill="#9568F9"/>
<path d="M38.6084 36.9937C38.6084 36.5605 38.8917 36.1772 39.3001 36.0523L44.2417 34.5609C44.8667 34.3693 45.5001 34.8442 45.5001 35.5024V41.7676C45.5001 42.2009 45.2167 42.5841 44.8084 42.7091L39.8667 44.2004C39.2417 44.392 38.6084 43.9172 38.6084 43.259V36.9937Z" fill="#7342DC"/>
<path d="M20.6915 36.994C20.6915 36.5607 20.4081 36.1775 19.9998 36.0525L15.0581 34.5612C14.4331 34.3696 13.7998 34.8445 13.7998 35.5026V41.7679C13.7998 42.2011 14.0831 42.5844 14.4915 42.7093L19.4331 44.2007C20.0581 44.3923 20.6915 43.9174 20.6915 43.2592V36.994Z" fill="#7342DC"/>
<path d="M13.7998 35.1694C13.7998 34.6278 14.2331 34.1863 14.7748 34.1863H44.5248C45.0665 34.1863 45.4998 34.6278 45.4998 35.1694V41.5263C45.4998 42.0678 45.0665 42.5094 44.5248 42.5094H14.7748C14.2331 42.5094 13.7998 42.0678 13.7998 41.5263V35.1694Z" fill="#A77DFF"/>
<path d="M13.9747 10L11.4247 11.3664L8.83301 10.1833L10.1747 12.6744L8.95801 15.0322L11.3163 13.8158L13.8413 14.8906L12.7247 12.5827L13.9747 10Z" fill="#FFCE21"/>
<path d="M52.1661 15.7319L50.2328 16.7734L48.2578 15.8736L49.2745 17.7648L48.3578 19.5561L50.1411 18.6313L52.0661 19.4478L51.2161 17.6898L52.1661 15.7319Z" fill="#FFCE21"/>
<path d="M5.94967 23.5469L4.89967 24.1135L3.83301 23.6219L4.38301 24.6469L3.88301 25.6135L4.85801 25.1135L5.89134 25.5635L5.43301 24.6052L5.94967 23.5469Z" fill="#FFCE21"/>
</svg>
