<svg width="49" height="48" viewBox="0 0 49 48" fill="none" xmlns="http://www.w3.org/2000/svg">
<rect x="0.5" width="48" height="48" rx="24" fill="black"/>
<mask id="mask0_935_29301" style="mask-type:luminance" maskUnits="userSpaceOnUse" x="16" y="18" width="17" height="16">
<path fill-rule="evenodd" clip-rule="evenodd" d="M16.7852 18.9165H32.4053V33.4855H16.7852V18.9165Z" fill="white"/>
</mask>
<g mask="url(#mask0_935_29301)">
<path fill-rule="evenodd" clip-rule="evenodd" d="M29.8318 24.496C29.8097 22.0711 31.8175 20.8909 31.9099 20.8357C30.7729 19.1773 29.0102 18.9501 28.3904 18.9323C26.9101 18.7771 25.4746 19.8183 24.72 19.8183C23.951 19.8183 22.7895 18.9484 21.5389 18.9738C19.9288 18.9993 18.4213 19.9311 17.5946 21.3792C15.8896 24.3315 17.1622 28.6701 18.7952 31.0568C19.6125 32.2252 20.5672 33.5309 21.817 33.4843C23.0404 33.4343 23.4966 32.7042 24.9735 32.7042C26.4361 32.7042 26.8643 33.4843 28.1395 33.4546C29.4519 33.4343 30.2786 32.2812 31.0671 31.1018C32.0116 29.7613 32.3906 28.4428 32.4059 28.375C32.3754 28.364 29.8572 27.4042 29.8318 24.496Z" fill="white"/>
</g>
<path fill-rule="evenodd" clip-rule="evenodd" d="M27.423 17.3634C28.0801 16.5401 28.5303 15.4209 28.4057 14.2856C27.4535 14.3272 26.2623 14.9436 25.5772 15.7491C24.971 16.4579 24.4292 17.6203 24.5691 18.7124C25.6383 18.7921 26.7363 18.1731 27.423 17.3634Z" fill="white"/>
</svg>
