<svg width="49" height="48" viewBox="0 0 49 48" fill="none" xmlns="http://www.w3.org/2000/svg">
<circle cx="24.5" cy="24" r="24" fill="#003C93"/>
<path fill-rule="evenodd" clip-rule="evenodd" d="M31.8096 32.1289C32.2634 31.728 32.2914 31.0511 31.8723 30.617C31.4531 30.1829 30.7455 30.1561 30.2917 30.557C28.677 31.9837 26.5762 32.7695 24.3764 32.7695C22.1766 32.7695 20.0758 31.9837 18.4612 30.557C18.0073 30.1561 17.2997 30.183 16.8805 30.617C16.4614 31.0511 16.4894 31.728 16.9432 32.1289C18.9725 33.9219 21.6123 34.9093 24.3764 34.9093C27.1405 34.9093 29.7803 33.9219 31.8096 32.1289ZM26.6135 25.0421V17.4337C26.6135 16.8428 26.1127 16.3638 25.4949 16.3638C24.8772 16.3638 24.3764 16.8428 24.3764 17.4337V25.0421C24.3764 25.3699 24.0976 25.6365 23.755 25.6365H22.8436C22.2259 25.6365 21.7251 26.1156 21.7251 26.7065C21.7251 27.2974 22.2259 27.7764 22.8436 27.7764H23.755C25.3312 27.7764 26.6135 26.5498 26.6135 25.0421ZM33.228 20.4256V17.3743C33.228 16.8162 32.755 16.3638 32.1716 16.3638C31.5882 16.3638 31.1152 16.8162 31.1152 17.3743V20.4256C31.1152 20.9837 31.5882 21.4361 32.1716 21.4361C32.755 21.4361 33.228 20.9837 33.228 20.4256ZM16.8298 21.436C16.2464 21.436 15.7734 20.9836 15.7734 20.4255V17.3743C15.7734 16.8162 16.2464 16.3638 16.8298 16.3638C17.4132 16.3638 17.8862 16.8162 17.8862 17.3743V20.4255C17.8862 20.9836 17.4132 21.436 16.8298 21.436Z" fill="white"/>
</svg>
