<svg width="20" height="20" viewBox="0 0 20 20" fill="none" xmlns="http://www.w3.org/2000/svg">
<mask id="mask0_754_18620" style="mask-type:luminance" maskUnits="userSpaceOnUse" x="4" y="5" width="14" height="13">
<path fill-rule="evenodd" clip-rule="evenodd" d="M4 5.85889H17.0168V17.9997H4V5.85889Z" fill="white"/>
</mask>
<g mask="url(#mask0_754_18620)">
<path fill-rule="evenodd" clip-rule="evenodd" d="M14.8722 10.5085C14.8538 8.48771 16.5269 7.50418 16.6039 7.45825C15.6565 6.07622 14.1875 5.88686 13.6711 5.87203C12.4374 5.74272 11.2412 6.61038 10.6124 6.61038C9.97156 6.61038 9.00358 5.88545 7.96142 5.90665C6.61969 5.92784 5.36344 6.70435 4.67455 7.91116C3.25368 10.3714 4.31421 13.9869 5.67503 15.9758C6.35614 16.9495 7.15172 18.0376 8.19317 17.9987C9.21272 17.957 9.59285 17.3487 10.8237 17.3487C12.0425 17.3487 12.3993 17.9987 13.4619 17.974C14.5557 17.957 15.2445 16.9961 15.9016 16.0133C16.6887 14.8962 17.0046 13.7975 17.0173 13.741C16.9918 13.7318 14.8934 12.932 14.8722 10.5085Z" fill="white"/>
</g>
<path fill-rule="evenodd" clip-rule="evenodd" d="M12.8655 4.56481C13.4131 3.87874 13.7883 2.94608 13.6844 2C12.891 2.03462 11.8983 2.54829 11.3274 3.21952C10.8222 3.81021 10.3707 4.7789 10.4873 5.68895C11.3783 5.75536 12.2932 5.23958 12.8655 4.56481Z" fill="white"/>
</svg>
