<svg width="99" height="24" viewBox="0 0 99 24" fill="none" xmlns="http://www.w3.org/2000/svg">
<mask id="mask0_754_16517" style="mask-type:luminance" maskUnits="userSpaceOnUse" x="9" y="2" width="81" height="20">
<rect x="9" y="2.61816" width="81" height="18.5496" fill="white"/>
</mask>
<g mask="url(#mask0_754_16517)">
<path fill-rule="evenodd" clip-rule="evenodd" d="M20.297 16.12H20.2714L13.0463 4.47314H9V21.1678H12.5664V9.28507H12.6368L18.6891 18.9462C20.4396 21.4219 22.0589 21.1229 23.8397 21.1535V4.47314H20.297V16.12Z" fill="#DDDDDD"/>
<path fill-rule="evenodd" clip-rule="evenodd" d="M35.5337 11.5059H31.1922C29.7451 11.5059 29.0286 10.8841 29.0438 9.64227C29.0609 8.1431 29.9332 7.39495 31.6664 7.39495H37.2451C37.2707 7.39973 37.2954 7.39495 37.3239 7.39495H37.3448V7.39112C40.0111 7.3165 39.8505 4.51907 39.8505 4.51907L39.841 4.47314H37.2451L31.1466 4.47697C29.3669 4.47697 28.0394 4.83574 27.1672 5.55327C26.1827 6.36361 25.6943 7.68101 25.6943 9.49876C25.6943 12.7181 27.4285 14.3254 30.8967 14.3254H34.766C35.5936 14.3254 36.2055 14.4928 36.598 14.8181C36.9885 15.1453 37.1785 15.6581 37.1614 16.3603C37.15 17.1228 36.8773 17.6528 36.3481 17.9379C35.9727 18.1465 35.375 18.2498 34.5617 18.2498H26.35V21.1678H35.0833C36.8773 21.1678 38.2124 20.8071 39.0847 20.0858C40.0624 19.2936 40.548 17.9934 40.5337 16.1948C40.5176 14.1685 39.9674 12.8214 38.8832 12.1508C38.1886 11.7222 37.0712 11.5059 35.5337 11.5059Z" fill="#DDDDDD"/>
<path fill-rule="evenodd" clip-rule="evenodd" d="M59.4547 6.94678C58.9576 6.94678 58.4878 7.01146 58.0421 7.14275C56.9125 7.47775 56.0018 8.04251 55.3178 8.83897C54.5979 7.57429 53.323 6.94678 51.49 6.94678C50.5996 6.94678 49.7325 7.15917 48.8935 7.5936C48.2095 7.94018 47.6864 8.33793 47.3279 8.7878V7.29336H44.2441V19.4005C44.2441 19.918 44.404 20.3398 44.7315 20.6719C45.056 21.0031 45.4881 21.1682 46.0171 21.1682C46.5315 21.1682 46.9549 21.0031 47.2891 20.6719C47.6224 20.3398 47.7891 19.918 47.7891 19.4005V11.6049C47.8414 11.404 47.9518 11.2052 48.1243 11.0034C48.6891 10.2253 49.468 9.83527 50.463 9.83527C50.7352 9.83527 50.9939 9.87678 51.2323 9.95884C51.986 10.2253 52.3638 10.9233 52.3638 12.0538V19.4005C52.3638 19.918 52.5247 20.3398 52.8512 20.6719C53.1757 21.0031 53.6059 21.1682 54.1378 21.1682C54.3247 21.1682 54.5127 21.1363 54.7026 21.0697C55.5096 20.8361 55.9088 20.2809 55.9088 19.4005V11.6049C55.9795 11.404 56.089 11.2052 56.242 11.0034C56.8253 10.2253 57.6052 9.83527 58.5827 9.83527C58.8559 9.83527 59.1127 9.87678 59.3549 9.95884C60.1076 10.2253 60.4835 10.9233 60.4835 12.0538V19.4005C60.4835 19.918 60.6453 20.3398 60.9747 20.6719C61.3003 21.0031 61.7246 21.1682 62.2575 21.1682C62.7893 21.1682 63.2166 21.0031 63.5421 20.6719C63.8676 20.3398 64.0304 19.918 64.0304 19.4005V11.6049C64.0304 10.0592 63.6119 8.87952 62.77 8.06665C62.0007 7.31749 60.8963 6.94678 59.4547 6.94678Z" fill="#DDDDDD"/>
<path fill-rule="evenodd" clip-rule="evenodd" d="M76.1319 7.29157L75.8228 8.11346C74.8399 7.33503 72.9219 6.94678 71.4421 6.94678C69.4604 6.94678 67.8495 7.56972 66.6102 8.80787C65.3024 10.1358 64.6484 11.9457 64.6484 14.2347C64.6484 16.5256 65.2417 18.2737 66.4274 19.4867C67.5285 20.6109 69.0719 21.1624 71.0605 21.1662L71.0615 21.1682H72.9169C73.7934 21.1682 74.505 20.4776 74.506 19.6258C74.508 18.772 73.7954 18.0786 72.9169 18.0786H72.2024C70.6948 17.9849 69.5221 17.6169 69.0013 16.938C68.414 16.1914 68.0979 15.4951 68.0979 14.1178C68.0979 13.3027 68.2987 12.6469 68.4716 12.0839C68.9884 10.5067 70.2436 9.7331 71.8267 9.7331C72.2401 9.7331 72.6108 9.78236 72.9378 9.87991C74.0051 10.215 75.2265 11.036 75.2265 12.3437V19.4278C75.2265 19.9435 75.3945 20.3588 75.7314 20.6824C76.0673 21.0059 76.5016 21.1682 77.0343 21.1682C77.1366 21.1682 77.2519 21.1604 77.3721 21.145C78.3719 20.9943 78.8698 20.4226 78.8698 19.4278V7.29157H76.1319Z" fill="#DDDDDD"/>
<path fill-rule="evenodd" clip-rule="evenodd" d="M84.4355 2.61816V19.4989C84.4355 20.2669 84.0546 20.7745 83.2857 21.0265C83.0366 21.1194 82.7864 21.1678 82.5352 21.1678C81.9804 21.1678 81.5336 21.0116 81.1857 20.6973C80.8398 20.385 80.7256 19.9852 80.7256 19.4989V2.61816H84.4355Z" fill="#DDDDDD"/>
<path fill-rule="evenodd" clip-rule="evenodd" d="M90 2.61816V19.4989C90 20.2669 89.6191 20.7745 88.8501 21.0265C88.601 21.1194 88.3509 21.1678 88.0997 21.1678C87.5449 21.1678 87.0981 21.0116 86.7502 20.6973C86.4043 20.385 86.29 19.9852 86.29 19.4989V2.61816H90Z" fill="#DDDDDD"/>
</g>
</svg>
