<svg width="88" height="21" viewBox="0 0 88 21" fill="none" xmlns="http://www.w3.org/2000/svg">
<mask id="mask0_1039_41800" style="mask-type:luminance" maskUnits="userSpaceOnUse" x="0" y="0" width="88" height="21">
<rect y="0.5" width="87.5544" height="20" fill="white"/>
</mask>
<g mask="url(#mask0_1039_41800)">
<path fill-rule="evenodd" clip-rule="evenodd" d="M12.2112 15.0573H12.1834L4.37375 2.49982H0V20.4998H3.85502V7.68799H3.93103L10.4732 18.1045C12.3652 20.7737 14.1156 20.4514 16.0405 20.4844V2.49982H12.2112V15.0573Z" fill="#111111"/>
<path fill-rule="evenodd" clip-rule="evenodd" d="M28.6825 10.0825H23.9897C22.4254 10.0825 21.651 9.41202 21.6674 8.07311C21.6859 6.45672 22.6288 5.65007 24.5022 5.65007H30.5323C30.56 5.65523 30.5867 5.65007 30.6175 5.65007H30.6401V5.64595C33.5221 5.56549 33.3486 2.54933 33.3486 2.54933L33.3383 2.49982H30.5323L23.9404 2.50394C22.0166 2.50394 20.5818 2.89076 19.6389 3.6644C18.5748 4.5381 18.0469 5.9585 18.0469 7.91838C18.0469 11.3894 19.9213 13.1224 23.6702 13.1224H27.8526C28.7472 13.1224 29.4086 13.3029 29.8328 13.6536C30.255 14.0064 30.4604 14.5593 30.4419 15.3164C30.4296 16.1386 30.1348 16.71 29.5627 17.0174C29.157 17.2423 28.5109 17.3537 27.6317 17.3537H18.7556V20.4998H28.1956C30.1348 20.4998 31.5779 20.1109 32.5207 19.3332C33.5776 18.4791 34.1025 17.0772 34.0871 15.138C34.0696 12.9532 33.4749 11.5008 32.303 10.7778C31.5522 10.3156 30.3443 10.0825 28.6825 10.0825Z" fill="#111111"/>
<path fill-rule="evenodd" clip-rule="evenodd" d="M54.539 5.16669C54.0018 5.16669 53.4939 5.23643 53.0121 5.37799C51.7911 5.73918 50.8067 6.3481 50.0674 7.20683C49.2893 5.84326 47.9111 5.16669 45.9298 5.16669C44.9674 5.16669 44.0301 5.39568 43.1233 5.86408C42.3839 6.23776 41.8184 6.66661 41.431 7.15166V5.54037H38.0977V18.5942C38.0977 19.1521 38.2704 19.6069 38.6244 19.965C38.9752 20.322 39.4423 20.5 40.0141 20.5C40.5701 20.5 41.0278 20.322 41.3891 19.965C41.7493 19.6069 41.9294 19.1521 41.9294 18.5942V10.189C41.986 9.97247 42.1054 9.75805 42.2918 9.5405C42.9023 8.70155 43.7443 8.28103 44.8198 8.28103C45.114 8.28103 45.3936 8.32578 45.6512 8.41426C46.466 8.70155 46.8744 9.45411 46.8744 10.673V18.5942C46.8744 19.1521 47.0482 19.6069 47.4011 19.965C47.752 20.322 48.2169 20.5 48.7919 20.5C48.994 20.5 49.1971 20.4657 49.4024 20.3939C50.2747 20.142 50.7062 19.5434 50.7062 18.5942V10.189C50.7826 9.97247 50.9009 9.75805 51.0664 9.5405C51.6968 8.70155 52.5398 8.28103 53.5965 8.28103C53.8918 8.28103 54.1693 8.32578 54.4311 8.41426C55.2448 8.70155 55.6511 9.45411 55.6511 10.673V18.5942C55.6511 19.1521 55.826 19.6069 56.1821 19.965C56.5339 20.322 56.9926 20.5 57.5686 20.5C58.1435 20.5 58.6053 20.322 58.9572 19.965C59.3091 19.6069 59.485 19.1521 59.485 18.5942V10.189C59.485 8.52251 59.0326 7.25055 58.1226 6.37412C57.2911 5.56639 56.0972 5.16669 54.539 5.16669Z" fill="#DC0A0A"/>
<path fill-rule="evenodd" clip-rule="evenodd" d="M72.565 5.53844L72.2309 6.42459C71.1685 5.58529 69.0953 5.16669 67.4957 5.16669C65.3537 5.16669 63.6124 5.83833 62.2729 7.1733C60.8592 8.6051 60.1523 10.5565 60.1523 13.0244C60.1523 15.4944 60.7937 17.3792 62.0752 18.6871C63.2654 19.8992 64.9337 20.4938 67.0832 20.4979L67.0843 20.5H69.0899C70.0374 20.5 70.8065 19.7555 70.8076 18.837C70.8097 17.9165 70.0395 17.1689 69.0899 17.1689H68.3175C66.6879 17.0679 65.4203 16.6711 64.8574 15.9391C64.2226 15.1341 63.881 14.3833 63.881 12.8984C63.881 12.0196 64.098 11.3125 64.2849 10.7054C64.8435 9.00497 66.2002 8.17088 67.9115 8.17088C68.3583 8.17088 68.759 8.22398 69.1124 8.32915C70.2662 8.69049 71.5864 9.57561 71.5864 10.9855V18.6236C71.5864 19.1796 71.7679 19.6274 72.1321 19.9762C72.4952 20.3251 72.9646 20.5 73.5404 20.5C73.651 20.5 73.7757 20.4917 73.9056 20.475C74.9863 20.3126 75.5245 19.6961 75.5245 18.6236V5.53844H72.565Z" fill="#DC0A0A"/>
<path fill-rule="evenodd" clip-rule="evenodd" d="M81.5414 0.5V18.7007C81.5414 19.5287 81.1297 20.076 80.2985 20.3476C80.0292 20.4479 79.7588 20.5 79.4873 20.5C78.8876 20.5 78.4047 20.3316 78.0286 19.9928C77.6547 19.656 77.5312 19.2249 77.5312 18.7007V0.5H81.5414Z" fill="#DC0A0A"/>
<path fill-rule="evenodd" clip-rule="evenodd" d="M87.5531 0.5V18.7007C87.5531 19.5287 87.1414 20.076 86.3102 20.3476C86.0409 20.4479 85.7706 20.5 85.4991 20.5C84.8993 20.5 84.4164 20.3316 84.0403 19.9928C83.6665 19.656 83.543 19.2249 83.543 18.7007V0.5H87.5531Z" fill="#DC0A0A"/>
</g>
</svg>
