<svg width="20" height="20" viewBox="0 0 20 20" fill="none" xmlns="http://www.w3.org/2000/svg">
<path d="M17.2028 6.78625L18.7344 13.7863C18.8709 14.4099 18.396 15 17.7575 15H4C3.44771 15 3 14.5523 3 14V7C3 6.44772 3.44772 6 4 6H16.2259C16.6958 6 17.1024 6.32719 17.2028 6.78625Z" fill="#458CF2" stroke="#EAF2FF"/>
<path d="M18 10.5H16.395C15.8855 10.5 15.4574 10.1169 15.4012 9.61043L15 6" stroke="#EAF2FF" stroke-linecap="round"/>
<circle cx="2" cy="2" r="1.5" transform="matrix(-1 0 0 1 16 13)" fill="#438AF1" stroke="#EAF2FF"/>
<circle cx="2" cy="2" r="1.5" transform="matrix(-1 0 0 1 9 13)" fill="#438AF1" stroke="#EAF2FF"/>
<rect x="-0.5" y="0.5" width="10" height="7" rx="0.5" transform="matrix(-1 0 0 1 12 3)" fill="#458CF2" stroke="#EAF2FF"/>
<rect width="4" height="6" transform="matrix(-1 0 0 1 4.5 4)" fill="#458CF2"/>
<path d="M4 6L1 6" stroke="#EAF2FF" stroke-linecap="round"/>
<path d="M4 8H2" stroke="#EAF2FF" stroke-linecap="round"/>
</svg>
