<svg width="16" height="16" viewBox="0 0 16 16" fill="none" xmlns="http://www.w3.org/2000/svg">
<g clip-path="url(#clip0_1722_46093)">
<path d="M8.1384 1.2002H8C5.21235 1.2002 2.95251 3.46003 2.95251 6.24768V9.65739C2.95251 9.75113 2.92136 9.84221 2.86397 9.91632L2.12413 10.8716C1.76785 11.3316 2.09571 12.0002 2.67755 12.0002H8H13.3225C13.9043 12.0002 14.2322 11.3316 13.8759 10.8716L13.2569 10.0724C13.1211 9.8971 13.0475 9.68171 13.0475 9.46003L13.0475 6.10929C13.0475 3.39807 10.8496 1.2002 8.1384 1.2002Z" stroke="#111111" stroke-linecap="round" stroke-linejoin="round"/>
<path d="M9.75 14C9.75 14.8284 8.9665 15.5 8 15.5C7.0335 15.5 6.25 14.8284 6.25 14" stroke="#111111" stroke-linecap="round" stroke-linejoin="round"/>
</g>
<defs>
<clipPath id="clip0_1722_46093">
<rect width="16" height="16" fill="white"/>
</clipPath>
</defs>
</svg>
