<svg width="26" height="20" viewBox="0 0 26 20" fill="none" xmlns="http://www.w3.org/2000/svg">
<g filter="url(#filter0_d_831_19515)">
<path fill-rule="evenodd" clip-rule="evenodd" d="M0.0179456 6.90249L0.0276863 1.97061C0.0298395 0.880385 0.883392 -0.00188774 1.93415 2.9487e-06L22.1013 0.0362909C23.1521 0.0381816 24.0021 0.923519 24 2.01375L23.9903 6.90261L23.9567 6.9024C22.5995 6.9024 21.4992 7.93301 21.4992 9.20433C21.4992 10.4756 22.5995 11.5063 23.9567 11.5063L23.9812 11.5061L23.9723 16.0294C23.9702 17.1196 23.1166 18.0019 22.0659 18L1.89867 17.9637C0.847913 17.9618 -0.00214847 17.0765 4.78066e-06 15.9862L0.00885302 11.5062C1.36015 11.4997 2.45344 10.4716 2.45344 9.20433C2.45344 7.93989 1.36506 6.91356 0.0179456 6.90249Z" fill="url(#paint0_linear_831_19515)"/>
</g>
<path d="M9.32338 8.96706C10.368 8.94087 10.9298 8.16483 10.9065 7.04201C10.8736 5.92432 10.2879 5.16239 9.22866 5.18895C8.19871 5.21477 7.61777 6.00594 7.64579 7.12376C7.6737 8.23669 8.26414 8.99361 9.32338 8.96706ZM8.64157 7.09879C8.6314 6.49827 8.83566 6.0731 9.25044 6.05781C9.68976 6.0468 9.89053 6.45694 9.91071 7.06697C9.92112 7.67726 9.72126 8.08278 9.3016 8.09819C8.89145 8.10359 8.66175 7.70883 8.64157 7.09879ZM8.79694 12.5165L9.89034 12.4891L14.5749 5.29913L13.4815 5.32654L8.79694 12.5165ZM12.5142 10.7724C12.5421 11.8854 13.1325 12.6423 14.182 12.616C15.2363 12.5895 15.7981 11.8135 15.7749 10.6907C15.7419 9.57298 15.1564 8.81594 14.0873 8.83785C13.0672 8.86831 12.4861 9.65461 12.5142 10.7724ZM13.5099 10.7475C13.4998 10.1469 13.6991 9.72188 14.1093 9.71648C14.5532 9.69559 14.7589 10.1056 14.7791 10.7156C14.7895 11.3259 14.5898 11.7363 14.1602 11.7471C13.7599 11.7571 13.5301 11.3575 13.5099 10.7475Z" fill="white"/>
<defs>
<filter id="filter0_d_831_19515" x="0" y="0" width="26" height="20" filterUnits="userSpaceOnUse" color-interpolation-filters="sRGB">
<feFlood flood-opacity="0" result="BackgroundImageFix"/>
<feColorMatrix in="SourceAlpha" type="matrix" values="0 0 0 0 0 0 0 0 0 0 0 0 0 0 0 0 0 0 127 0" result="hardAlpha"/>
<feOffset dx="1" dy="1"/>
<feGaussianBlur stdDeviation="0.5"/>
<feComposite in2="hardAlpha" operator="out"/>
<feColorMatrix type="matrix" values="0 0 0 0 0.625 0 0 0 0 0.0078125 0 0 0 0 0.192969 0 0 0 0.2 0"/>
<feBlend mode="normal" in2="BackgroundImageFix" result="effect1_dropShadow_831_19515"/>
<feBlend mode="normal" in="SourceGraphic" in2="effect1_dropShadow_831_19515" result="shape"/>
</filter>
<linearGradient id="paint0_linear_831_19515" x1="6.5" y1="-1.33347e-07" x2="18.9058" y2="18.4006" gradientUnits="userSpaceOnUse">
<stop stop-color="#FF5F5F"/>
<stop offset="1" stop-color="#ED3742"/>
</linearGradient>
</defs>
</svg>
