<svg width="24" height="24" viewBox="0 0 24 24" fill="none" xmlns="http://www.w3.org/2000/svg">
<path d="M8.04 4C5.25648 4 3 6.38781 3 9.33333C3 11.0331 3.42857 12 4.71429 13.4118C5.41618 14.1825 11.7907 19.8719 12 20C12.2093 19.8719 18.5838 14.1825 19.2857 13.4118C20.5714 12 21 11.0331 21 9.33333C21 6.38781 18.7435 4 15.96 4C14.3537 4 12.9229 4.79518 12 6.03383C11.0771 4.79518 9.64629 4 8.04 4Z" stroke="#FF001A" stroke-width="1.2" stroke-linecap="round" stroke-linejoin="round"/>
<path d="M8.04 4C5.25648 4 3 6.38781 3 9.33333C3 11.0331 3.42857 12 4.71429 13.4118C5.41618 14.1825 11.7907 19.8719 12 20C12.2093 19.8719 18.5838 14.1825 19.2857 13.4118C20.5714 12 21 11.0331 21 9.33333C21 6.38781 18.7435 4 15.96 4C14.3537 4 12.9229 4.79518 12 6.03383C11.0771 4.79518 9.64629 4 8.04 4Z" fill="#FF001A" stroke="#FF001A" stroke-linecap="round" stroke-linejoin="round"/>
</svg>
