<svg width="16" height="16" viewBox="0 0 16 16" fill="none" xmlns="http://www.w3.org/2000/svg">
<rect x="0.5" y="0.5" width="15" height="15" rx="7.5" fill="white"/>
<path d="M6.76953 9.92969V10.0586H8.31641V9.92969C8.32227 9.10938 8.61523 8.72852 9.27734 8.33594C10.0449 7.87305 10.543 7.26367 10.543 6.29688C10.543 4.84961 9.38867 4 7.75391 4C6.25391 4 5.0293 4.79102 5 6.4375H6.66406C6.6875 5.75195 7.19727 5.38867 7.74219 5.38281C8.31055 5.38867 8.76758 5.76953 8.76172 6.35547C8.76758 6.89453 8.375 7.25781 7.87109 7.58594C7.16797 8.02539 6.77539 8.4707 6.76953 9.92969ZM6.59375 11.7227C6.58203 12.2676 7.02734 12.707 7.57812 12.707C8.09961 12.707 8.55078 12.2676 8.55078 11.7227C8.55078 11.1836 8.09961 10.7441 7.57812 10.75C7.02734 10.7441 6.58203 11.1836 6.59375 11.7227Z" fill="#9E9E9E"/>
<rect x="0.5" y="0.5" width="15" height="15" rx="7.5" stroke="#9E9E9E"/>
</svg>
