<svg width="80" height="80" viewBox="0 0 80 80" fill="none" xmlns="http://www.w3.org/2000/svg">
<rect width="80" height="80" rx="12" fill="#F6F6F6"/>
<rect x="20.5" y="30.5" width="8.12726" height="8.12726" rx="3.5" stroke="#111111"/>
<rect x="20.5" y="43.7761" width="8.12726" height="8.12726" rx="3.5" stroke="#111111"/>
<rect x="20.5" y="57.052" width="8.12726" height="8.12726" rx="3.5" stroke="#111111"/>
<rect x="33.7754" y="30.5" width="8.12726" height="8.12726" rx="3.5" stroke="#111111"/>
<rect x="33.7754" y="43.7761" width="8.12726" height="8.12726" rx="3.5" stroke="#111111"/>
<rect x="33.7754" y="57.052" width="8.12726" height="8.12726" rx="3.5" stroke="#111111"/>
<rect x="47.0527" y="30.5" width="8.12726" height="8.12726" rx="3.5" stroke="#111111"/>
<path d="M24.7227 50.2852L24.6523 48.4688L26.1992 49.4414L26.5977 48.75L24.9922 47.9062L26.5977 47.0508L26.1992 46.3594L24.6523 47.332L24.7227 45.5156H23.9258L23.9961 47.332L22.4492 46.3594L22.0508 47.0508L23.668 47.9062L22.0508 48.75L22.4492 49.4414L23.9961 48.4688L23.9258 50.2852H24.7227Z" fill="#111111"/>
<path d="M38.2227 50.2852L38.1523 48.4688L39.6992 49.4414L40.0977 48.75L38.4922 47.9062L40.0977 47.0508L39.6992 46.3594L38.1523 47.332L38.2227 45.5156H37.4258L37.4961 47.332L35.9492 46.3594L35.5508 47.0508L37.168 47.9062L35.5508 48.75L35.9492 49.4414L37.4961 48.4688L37.4258 50.2852H38.2227Z" fill="#111111"/>
<path d="M28.9141 18.1719H19.4336V18.8867H23.7109V19.8594H20.5703V20.5508H26.793V21.4531H20.5938V23.832H28.0117V23.1289H21.5078V22.1094H27.6953V19.8594H24.6133V18.8867H28.9141V18.1719ZM19.9375 16.9883L20.207 17.6914C21.9531 17.5449 23.5234 17.0059 24.168 16.0156C24.8066 17.0059 26.377 17.5449 28.1172 17.6914L28.3984 16.9883C26.4766 16.8652 24.8477 16.2148 24.6836 15.1719H27.9531V14.4453H24.6133V13.4727H23.7109V14.4453H20.4062V15.1719H23.6465C23.4766 16.2148 21.8477 16.8652 19.9375 16.9883ZM38.3945 13.5312H37.4805V19.1211H38.3945V13.5312ZM30.0391 16.4375C30.0332 17.8555 31.1875 18.834 32.7695 18.8281C34.3516 18.834 35.4941 17.8555 35.5 16.4375C35.4941 15.0137 34.3516 14.0352 32.7695 14.0469C31.1875 14.0352 30.0332 15.0137 30.0391 16.4375ZM30.9414 16.4375C30.9297 15.4824 31.6973 14.8145 32.7695 14.8203C33.8301 14.8145 34.5977 15.4824 34.5977 16.4375C34.5977 17.3867 33.8301 18.0605 32.7695 18.0664C31.6973 18.0605 30.9297 17.3867 30.9414 16.4375ZM31.6445 23.8086H38.3945V19.6484H37.4805V20.9141H32.5586V19.6484H31.6445V23.8086ZM32.5586 23.0586V21.6523H37.4805V23.0586H32.5586ZM48.8008 13.543H47.875V16.4727H45.4141V14.2344H44.5117V16.0859H41.6055V14.2344H40.6914V19.4727H45.4141V17.2461H47.875V21.2539H48.8008V13.543ZM41.6055 18.7109V16.8125H44.5117V18.7109H41.6055ZM42.0625 23.7266H49.0352V22.9531H42.9883V20.4922H42.0625V23.7266ZM59.5352 15.0781H55.7266V13.707H54.8242V15.0781H51.0039V15.8398H59.5352V15.0781ZM50.5352 22.7305H60.0742V21.9688H55.7266V20.5039C57.5664 20.4043 58.709 19.6836 58.7031 18.5117C58.709 17.2754 57.3789 16.543 55.2812 16.5547C53.1543 16.543 51.8477 17.2754 51.8594 18.5117C51.8477 19.6836 52.9668 20.4043 54.8242 20.5039V21.9688H50.5352V22.7305ZM52.7852 18.5117C52.7734 17.7383 53.7285 17.2812 55.2812 17.2812C56.8164 17.2812 57.7715 17.7383 57.7656 18.5117C57.7715 19.3027 56.8164 19.7598 55.2812 19.7656C53.7285 19.7598 52.7734 19.3027 52.7852 18.5117Z" fill="#111111"/>
<path d="M53.661 59.4736L46.701 47.4186L48.0917 45.8503L50.1453 45.43L52.4653 49.4484L53.856 47.88L55.9984 48.9393L57.3891 47.371L60.1056 48.0989L61.8277 47.1046L63.6387 47.5898L68.9415 56.7746L67.971 60.3965C67.971 60.3965 66.0951 63.7758 62.8934 64.8589C59.6917 65.942 54.5903 65.0603 53.3534 64.2437C52.1165 63.427 46.1745 58.4381 46.1745 58.4381L47.5653 56.8698L50.2817 57.5977L53.661 59.4736Z" fill="white"/>
<path d="M64.5283 47.3522C64.5283 47.3522 64.4984 47.3005 64.4852 47.2775C63.721 46.2721 62.3712 45.9493 61.267 46.5026C60.8462 46.7149 60.5146 47.0288 60.2786 47.4023C59.4748 46.527 58.1188 46.2995 57.0725 46.9266C56.6855 47.1577 56.3868 47.4756 56.1771 47.8415C55.3512 47.1932 54.1693 47.0949 53.2469 47.6581C52.9287 47.8494 52.6709 48.1054 52.4715 48.3966L50.937 45.7387C50.9081 45.7018 50.8791 45.665 50.8535 45.6338C50.0123 44.6806 48.579 44.4518 47.514 45.1127C46.4891 45.7503 46.041 47.0423 46.4424 48.1883C46.4598 48.2318 46.474 48.2695 46.4972 48.3097L51.6211 57.1845L50.8014 56.6398C49.9479 56.0763 48.9177 55.8827 47.9148 56.0944C46.9118 56.306 46.047 56.8895 45.4868 57.7487C45.299 58.0332 45.2364 58.3755 45.3036 58.7041C45.3742 59.0384 45.5695 59.3237 45.8326 59.5009L53.209 64.6412C54.8767 65.8062 56.8451 66.3919 58.8076 66.384C60.4881 66.3781 62.1667 65.9448 63.6765 65.0731L65.921 63.7772C69.275 61.8178 70.4208 57.5053 68.4672 54.148L64.5225 47.3555L64.5283 47.3522ZM65.1886 62.5086L62.944 63.8045C60.1722 65.4201 56.6773 65.2794 54.0398 63.4421L46.8061 58.4031C47.1559 57.9485 47.6454 57.6429 48.2114 57.5228C48.8332 57.3934 49.4701 57.5156 50.0077 57.8634L53.386 60.0691C53.6672 60.2512 54.0395 60.2199 54.281 59.9887C54.5225 59.7574 54.5776 59.3888 54.4086 59.096L47.7851 47.6503C47.6398 47.1601 47.8331 46.6199 48.2685 46.3533C48.7178 46.0709 49.32 46.1595 49.6876 46.5443L52.0158 50.5502L54.7417 55.2451C54.8775 55.4804 55.1198 55.6085 55.3722 55.6081C55.4939 55.6068 55.6229 55.5783 55.7377 55.512C56.0879 55.3098 56.2067 54.8661 55.9988 54.5193L53.5447 50.2951C53.327 49.7855 53.511 49.1895 53.9809 48.9029C54.4564 48.613 55.0933 48.7351 55.4406 49.1776L56.1101 50.3372L57.8866 53.4141C58.0339 53.6428 58.2762 53.7708 58.5286 53.7705C58.6503 53.7691 58.7793 53.7406 58.8941 53.6743C59.2442 53.4721 59.3631 53.0285 59.1552 52.6816L57.3887 49.6219C57.1266 49.115 57.3046 48.4688 57.795 48.178C58.2969 47.8806 58.9685 48.0363 59.2756 48.5019L60.0975 49.9256C60.0975 49.9256 60.1099 49.9337 60.1132 49.9395L61.0611 51.5813C61.1969 51.8166 61.445 51.9413 61.6974 51.941C61.8191 51.9397 61.948 51.9111 62.0628 51.8448C62.413 51.6427 62.5319 51.199 62.324 50.8521L61.3927 49.239C61.1823 48.7023 61.4055 48.0682 61.9043 47.8185C62.3596 47.5863 62.9473 47.7292 63.2837 48.1396L67.2018 54.8862C68.7487 57.5522 67.8407 60.9774 65.1804 62.5209L65.1886 62.5086Z" fill="#111111"/>
</svg>
