<svg width="84" height="16" viewBox="0 0 84 16" fill="none" xmlns="http://www.w3.org/2000/svg">
<path d="M7.15231 1.35454C7.54408 0.728532 8.45592 0.728532 8.84769 1.35454L10.4758 3.95612C10.613 4.17542 10.8299 4.333 11.0809 4.39576L14.0583 5.14024C14.7747 5.31938 15.0565 6.1866 14.5822 6.75264L12.611 9.10499C12.4449 9.30328 12.362 9.55825 12.3799 9.81634L12.5919 12.878C12.6429 13.6148 11.9052 14.1507 11.2203 13.8745L8.37398 12.7268C8.13404 12.6301 7.86595 12.6301 7.62602 12.7268L4.77969 13.8745C4.09479 14.1507 3.35709 13.6148 3.4081 12.878L3.62011 9.81634C3.63798 9.55825 3.55514 9.30328 3.38898 9.10499L1.41784 6.75264C0.943534 6.1866 1.22531 5.31938 1.94174 5.14024L4.9191 4.39576C5.17008 4.333 5.38697 4.17542 5.52421 3.95612L7.15231 1.35454Z" fill="#FFAB00"/>
<path d="M24.1523 1.35454C24.5441 0.728532 25.4559 0.728532 25.8477 1.35454L27.4758 3.95612C27.613 4.17542 27.8299 4.333 28.0809 4.39576L31.0583 5.14024C31.7747 5.31938 32.0565 6.1866 31.5822 6.75264L29.611 9.10499C29.4449 9.30328 29.362 9.55825 29.3799 9.81634L29.5919 12.878C29.6429 13.6148 28.9052 14.1507 28.2203 13.8745L25.374 12.7268C25.134 12.6301 24.866 12.6301 24.626 12.7268L21.7797 13.8745C21.0948 14.1507 20.3571 13.6148 20.4081 12.878L20.6201 9.81634C20.638 9.55825 20.5551 9.30328 20.389 9.10499L18.4178 6.75264C17.9435 6.1866 18.2253 5.31938 18.9417 5.14024L21.9191 4.39576C22.1701 4.333 22.387 4.17542 22.5242 3.95612L24.1523 1.35454Z" fill="#FFAB00"/>
<path d="M41.1523 1.35454C41.5441 0.728532 42.4559 0.728532 42.8477 1.35454L44.4758 3.95612C44.613 4.17542 44.8299 4.333 45.0809 4.39576L48.0583 5.14024C48.7747 5.31938 49.0565 6.1866 48.5822 6.75264L46.611 9.10499C46.4449 9.30328 46.362 9.55825 46.3799 9.81634L46.5919 12.878C46.6429 13.6148 45.9052 14.1507 45.2203 13.8745L42.374 12.7268C42.134 12.6301 41.866 12.6301 41.626 12.7268L38.7797 13.8745C38.0948 14.1507 37.3571 13.6148 37.4081 12.878L37.6201 9.81634C37.638 9.55825 37.5551 9.30328 37.389 9.10499L35.4178 6.75264C34.9435 6.1866 35.2253 5.31938 35.9417 5.14024L38.9191 4.39576C39.1701 4.333 39.387 4.17542 39.5242 3.95612L41.1523 1.35454Z" fill="#FFAB00"/>
<path d="M58.1523 1.35454C58.5441 0.728532 59.4559 0.728532 59.8477 1.35454L61.4758 3.95612C61.613 4.17542 61.8299 4.333 62.0809 4.39576L65.0583 5.14024C65.7747 5.31938 66.0565 6.1866 65.5822 6.75264L63.611 9.10499C63.4449 9.30328 63.362 9.55825 63.3799 9.81634L63.5919 12.878C63.6429 13.6148 62.9052 14.1507 62.2203 13.8745L59.374 12.7268C59.134 12.6301 58.866 12.6301 58.626 12.7268L55.7797 13.8745C55.0948 14.1507 54.3571 13.6148 54.4081 12.878L54.6201 9.81634C54.638 9.55825 54.5551 9.30328 54.389 9.10499L52.4178 6.75264C51.9435 6.1866 52.2253 5.31938 52.9417 5.14024L55.9191 4.39576C56.1701 4.333 56.387 4.17542 56.5242 3.95612L58.1523 1.35454Z" fill="#FFAB00"/>
<path d="M75.1523 1.35454C75.5441 0.728532 76.4559 0.728532 76.8477 1.35454L78.4758 3.95612C78.613 4.17542 78.8299 4.333 79.0809 4.39576L82.0583 5.14024C82.7747 5.31938 83.0565 6.1866 82.5822 6.75264L80.611 9.10499C80.4449 9.30328 80.362 9.55825 80.3799 9.81634L80.5919 12.878C80.6429 13.6148 79.9052 14.1507 79.2203 13.8745L76.374 12.7268C76.134 12.6301 75.866 12.6301 75.626 12.7268L72.7797 13.8745C72.0948 14.1507 71.3571 13.6148 71.4081 12.878L71.6201 9.81634C71.638 9.55825 71.5551 9.30328 71.389 9.10499L69.4178 6.75264C68.9435 6.1866 69.2253 5.31938 69.9417 5.14024L72.9191 4.39576C73.1701 4.333 73.387 4.17542 73.5242 3.95612L75.1523 1.35454Z" fill="#FFAB00"/>
</svg>
