<svg width="11" height="11" viewBox="0 0 11 11" fill="none" xmlns="http://www.w3.org/2000/svg">
<path d="M4.65231 0.854539C5.04408 0.228531 5.95592 0.228532 6.34769 0.85454L7.47147 2.65026C7.60871 2.86956 7.8256 3.02714 8.07658 3.08989L10.1317 3.60377C10.8481 3.78291 11.1299 4.65013 10.6556 5.21617L9.29501 6.83985C9.12886 7.03814 9.04601 7.29311 9.06388 7.5512L9.21022 9.66451C9.26123 10.4012 8.52353 10.9372 7.83863 10.661L5.87398 9.8688C5.63404 9.77205 5.36595 9.77205 5.12602 9.8688L3.16137 10.661C2.47647 10.9372 1.73877 10.4012 1.78978 9.66451L1.93612 7.5512C1.95399 7.29311 1.87114 7.03814 1.70499 6.83985L0.344425 5.21616C-0.129881 4.65013 0.151896 3.78291 0.868327 3.60377L2.92342 3.08989C3.1744 3.02714 3.39129 2.86956 3.52853 2.65025L4.65231 0.854539Z" fill="#FFAB00"/>
</svg>
