<svg width="12" height="12" viewBox="0 0 12 12" fill="none" xmlns="http://www.w3.org/2000/svg">
<g clip-path="url(#clip0_1467_12409)">
<path d="M6.10252 1H6C3.93507 1 2.26112 2.67396 2.26112 4.73888V7.26459C2.26112 7.33403 2.23805 7.40149 2.19553 7.45639L1.65559 8.15353C1.38839 8.49853 1.63428 9 2.07066 9H6H9.92934C10.3657 9 10.6116 8.49853 10.3444 8.15353L9.89593 7.57448C9.79412 7.44303 9.73888 7.28149 9.73888 7.11523L9.73888 4.63636C9.73888 2.62806 8.11083 1 6.10252 1Z" fill="#DC0A0A" stroke="#DC0A0A" stroke-linecap="round" stroke-linejoin="round"/>
<path d="M6 11.5C6.69036 11.5 7.25 11.0523 7.25 10.5H4.75C4.75 11.0523 5.30964 11.5 6 11.5Z" fill="#DC0A0A" stroke="#DC0A0A" stroke-linecap="round" stroke-linejoin="round"/>
</g>
<defs>
<clipPath id="clip0_1467_12409">
<rect width="12" height="12" fill="white"/>
</clipPath>
</defs>
</svg>
