<svg width="80" height="80" viewBox="0 0 80 80" fill="none" xmlns="http://www.w3.org/2000/svg">
<rect width="80" height="80" rx="12" fill="#F6F6F6"/>
<path d="M12.7024 22.4727V20.5156H11.8118V22.5312C11.8176 24.3184 10.9211 26.1758 9.468 27.0078L10.0657 27.6875C11.1028 27.0664 11.8762 25.9004 12.2629 24.5352C12.6379 25.7891 13.3586 26.8555 14.3664 27.4297L14.9172 26.7031C13.5285 25.9531 12.7024 24.1836 12.7024 22.4727ZM15.3039 29.4219H16.1946V24.4883H17.6243V29.9492H18.5149V19.5312H17.6243V23.7266H16.1946V19.7539H15.3039V29.4219ZM21.3977 20.1523H20.4836V25.1328H25.2063V24.0898H27.6672V25.7305H28.593V19.5312H27.6672V21.207H25.2063V20.1523H24.3039V21.8867H21.3977V20.1523ZM21.3977 24.3711V22.6133H24.3039V24.3711H21.3977ZM21.5852 27.0312H27.6672V29.9492H28.593V26.2812H21.5852V27.0312ZM25.2063 23.3281V21.9688H27.6672V23.3281H25.2063ZM31.593 20.5273H30.7141V27.3477H34.7102V20.5273H33.8547V23.0703H31.593V20.5273ZM31.593 26.5859V23.8203H33.8547V26.5859H31.593ZM36.0344 29.4219H36.9133V24.4297H38.3664V29.9492H39.2571V19.5312H38.3664V23.668H36.9133V19.7539H36.0344V29.4219ZM45.8899 23.1758H44.9875V24.7109H40.6985V25.4609H50.1907V24.7109H45.8899V23.1758ZM41.2727 22.9883L41.6243 23.7266C43.2239 23.4512 44.7883 22.625 45.4446 21.4121C46.095 22.6133 47.6653 23.4512 49.2414 23.7266L49.6164 22.9883C47.7766 22.7363 45.9016 21.5762 45.9016 20.1875V19.6953H44.9758V20.1875C44.9758 21.5762 43.1125 22.7363 41.2727 22.9883ZM41.8469 28.1328C41.841 29.293 43.1828 29.9258 45.4446 29.9258C47.6828 29.9258 49.0188 29.293 49.0305 28.1328C49.0188 26.9785 47.6828 26.334 45.4446 26.3281C43.1828 26.334 41.841 26.9785 41.8469 28.1328ZM42.7844 28.1328C42.7727 27.4414 43.7571 27.0547 45.4446 27.0547C47.1145 27.0547 48.0989 27.4414 48.1047 28.1328C48.0989 28.8184 47.1145 29.2168 45.4446 29.2109C43.7571 29.2168 42.7727 28.8184 42.7844 28.1328ZM55.8157 20.2109C53.6418 20.2168 52.0071 21.3535 52.0071 23.0703C52.0071 24.8047 53.6418 25.9414 55.8157 25.9297C57.9895 25.9414 59.6243 24.8047 59.6243 23.0703C59.6243 21.3535 57.9895 20.2168 55.8157 20.2109ZM51.0696 28.5664H60.6086V27.793H51.0696V28.5664ZM52.886 23.0703C52.8743 21.8223 54.134 20.9551 55.8157 20.9609C57.4856 20.9551 58.7336 21.8223 58.7336 23.0703C58.7336 24.3359 57.4856 25.1797 55.8157 25.1797C54.134 25.1797 52.8743 24.3359 52.886 23.0703ZM70.9797 27.8867H66.6321V25.918H70.0188V25.1562H63.55V23.457H69.7727V20.3047H62.6125V21.0664H68.8703V22.707H62.636V25.918H65.7297V27.8867H61.4407V28.6602H70.9797V27.8867ZM26.595 33.5312H25.6809V39.625H26.595V36.8242H28.1653V36.0508H26.595V33.5312ZM18.8957 38.9688H23.7473V34.1289H22.8332V35.7227H19.7981V34.1289H18.8957V38.9688ZM19.7981 38.2305V36.4609H22.8332V38.2305H19.7981ZM20.0559 43.8086H26.8762V43.0586H20.97V40.9492H26.677V40.2109H20.0559V43.8086ZM32.5481 36.7305V35.3711H35.0325V34.6094H29.1614V35.3711H31.6223V36.7305C31.6164 38.5352 30.3157 40.5039 28.8215 41.2188L29.3723 41.9453C30.5618 41.3477 31.6164 40.0234 32.1028 38.4941C32.5891 39.9355 33.6379 41.1367 34.8567 41.6875L35.3723 40.9609C33.8371 40.2988 32.5539 38.5 32.5481 36.7305ZM36.4856 43.9492H37.4114V33.5312H36.4856V43.9492ZM45.1106 34.1289C43.5578 34.1348 42.3977 35.125 42.4035 36.5312C42.3977 37.9551 43.5578 38.9395 45.1106 38.9453C46.6692 38.9395 47.8176 37.9551 47.8176 36.5312C47.8176 35.125 46.6692 34.1348 45.1106 34.1289ZM43.3059 36.5312C43.3 35.5938 44.0852 34.9023 45.1106 34.9023C46.1418 34.9023 46.9211 35.5938 46.9153 36.5312C46.9211 37.4863 46.1418 38.1836 45.1106 38.1836C44.0852 38.1836 43.3 37.4863 43.3059 36.5312ZM43.3176 43.668H43.8098C44.4895 43.6738 45.4797 43.627 46.4934 43.293L46.3528 42.5547C45.6145 42.8008 44.8118 42.8887 44.2082 42.9121V39.8711H43.3176V43.668ZM46.1301 40.6328H51.3918V39.918H49.2239V38.9922H48.3215V39.918H46.1301V40.6328ZM46.8215 42.4609C46.8157 43.3633 47.6067 43.9258 48.7551 43.9258C49.8977 43.9258 50.7004 43.3633 50.7121 42.4609C50.7004 41.5586 49.8977 40.9844 48.7551 40.9844C47.6067 40.9844 46.8157 41.5586 46.8215 42.4609ZM47.6418 42.4609C47.6418 41.9805 48.1047 41.6582 48.7551 41.6523C49.4055 41.6582 49.8684 41.9805 49.8684 42.4609C49.8684 42.9531 49.4055 43.2637 48.7551 43.2695C48.1047 43.2637 47.6418 42.9531 47.6418 42.4609ZM49.4348 38.7461H50.3489V36.6484H51.9192V35.8867H50.3489V33.5312H49.4348V38.7461ZM61.1887 33.5312H60.2629V43.9492H61.1887V33.5312ZM52.7043 41.2422L53.2082 41.9922C56.7004 40.3164 58.095 37.6621 58.1067 34.668H53.1848V35.418H57.1692C56.9641 37.9082 55.5227 39.9062 52.7043 41.2422Z" fill="#111111"/>
<path d="M34.4941 57.0679C34.4941 60.8362 31.3714 63.9088 27.4971 63.9088C23.6227 63.9088 20.5 60.8362 20.5 57.0679C20.5 53.2997 23.6227 50.2271 27.4971 50.2271C31.3714 50.2271 34.4941 53.2997 34.4941 57.0679Z" stroke="#111111"/>
<path d="M24.7344 54.3868L28.5706 58.4845L34.5989 52.0452" stroke="#111111" stroke-width="3" stroke-linecap="round" stroke-linejoin="round"/>
<path d="M48.0692 61.7206L41.4497 50.4941L42.7724 49.0335L44.7255 48.6422L46.932 52.3843L48.2547 50.9238L50.2923 51.9103L51.615 50.4497L54.1986 51.1276L55.8365 50.2016L57.5589 50.6535L62.6023 59.2071L61.6793 62.5801C61.6793 62.5801 59.8951 65.7271 56.85 66.7358C53.805 67.7444 48.953 66.9233 47.7766 66.1628C46.6002 65.4022 40.949 60.7563 40.949 60.7563L42.2717 59.2957L44.8552 59.9736L48.0692 61.7206Z" fill="white"/>
<path d="M58.4044 50.4323C58.4044 50.4323 58.376 50.3842 58.3634 50.3628C57.6366 49.4265 56.3528 49.1258 55.3027 49.6411C54.9024 49.8389 54.587 50.1312 54.3626 50.479C53.5981 49.6639 52.3084 49.452 51.3133 50.036C50.9452 50.2512 50.6611 50.5472 50.4617 50.8881C49.6762 50.2843 48.5521 50.1927 47.6748 50.7172C47.3722 50.8954 47.127 51.1338 46.9374 51.405L45.4779 48.9298C45.4504 48.8954 45.4229 48.8611 45.3985 48.8321C44.5984 47.9443 43.2353 47.7313 42.2223 48.3467C41.2476 48.9406 40.8214 50.1438 41.2031 51.211C41.2198 51.2515 41.2332 51.2866 41.2553 51.3241L46.1285 59.5889L45.3489 59.0816C44.5372 58.5569 43.5574 58.3766 42.6035 58.5737C41.6496 58.7708 40.8271 59.3142 40.2943 60.1144C40.1157 60.3793 40.0561 60.6981 40.1201 61.0041C40.1872 61.3154 40.3729 61.5811 40.6231 61.7461L47.6388 66.5331C49.2249 67.6181 51.097 68.1635 52.9635 68.1561C54.5619 68.1507 56.1584 67.7471 57.5943 66.9354L59.729 65.7285C62.919 63.9038 64.0087 59.8877 62.1506 56.7611L58.3989 50.4354L58.4044 50.4323ZM59.0324 64.5471L56.8976 65.7539C54.2614 67.2585 50.9375 67.1275 48.429 65.4164L41.549 60.7237C41.8818 60.3004 42.3473 60.0158 42.8856 59.904C43.477 59.7835 44.0827 59.8972 44.5941 60.2212L47.8071 62.2753C48.0745 62.4448 48.4286 62.4157 48.6583 62.2003C48.888 61.985 48.9404 61.6417 48.7797 61.3691L42.4802 50.71C42.342 50.2535 42.5258 49.7504 42.9399 49.5021C43.3673 49.2391 43.94 49.3216 44.2896 49.6799L46.5039 53.4106L49.0965 57.7828C49.2257 58.002 49.4562 58.1212 49.6962 58.1209C49.8119 58.1196 49.9346 58.0931 50.0438 58.0313C50.3768 57.8431 50.4899 57.4299 50.2922 57.1068L47.9581 53.173C47.7511 52.6985 47.926 52.1433 48.3729 51.8765C48.8252 51.6065 49.431 51.7203 49.7613 52.1323L50.398 53.2122L52.0876 56.0776C52.2277 56.2906 52.4582 56.4098 52.6982 56.4095C52.8139 56.4083 52.9366 56.3817 53.0458 56.32C53.3788 56.1317 53.4919 55.7185 53.2942 55.3955L51.614 52.5461C51.3648 52.074 51.5341 51.4722 52.0005 51.2014C52.4778 50.9245 53.1165 51.0694 53.4086 51.5031L54.1903 52.8289C54.1903 52.8289 54.2021 52.8365 54.2053 52.8418L55.1068 54.3708C55.236 54.59 55.4719 54.7061 55.712 54.7058C55.8277 54.7045 55.9504 54.678 56.0595 54.6162C56.3926 54.428 56.5057 54.0148 56.3079 53.6917L55.4222 52.1895C55.222 51.6896 55.4344 51.0992 55.9088 50.8666C56.3418 50.6503 56.9007 50.7834 57.2207 51.1656L60.9472 57.4486C62.4184 59.9314 61.5548 63.1211 59.0246 64.5586L59.0324 64.5471Z" fill="#111111"/>
</svg>
