<svg width="11" height="12" viewBox="0 0 11 12" fill="none" xmlns="http://www.w3.org/2000/svg">
<path d="M1.28101 5.25193C1.40612 4.25107 2.25692 3.5 3.26556 3.5H7.73444C8.74308 3.5 9.59388 4.25107 9.71899 5.25193L10.219 9.25193C10.3682 10.4456 9.43743 11.5 8.23444 11.5H2.76556C1.56257 11.5 0.631795 10.4456 0.781009 9.25193L1.28101 5.25193Z" fill="#7672F4"/>
<path d="M7.25 3.5C7.25 4.87649 6.34427 5.75 5.5 5.75C4.65573 5.75 3.75 4.87649 3.75 3.5C3.75 2.12351 4.65573 1.25 5.5 1.25C6.34427 1.25 7.25 2.12351 7.25 3.5Z" stroke="#7672F4" stroke-width="1.5"/>
</svg>
