<svg width="11" height="12" viewBox="0 0 11 12" fill="none" xmlns="http://www.w3.org/2000/svg">
<path fill-rule="evenodd" clip-rule="evenodd" d="M1.5625 2.00488C1.5625 1.77775 1.42596 1.58229 1.22994 1.495C1.3109 1.43168 1.40901 1.38834 1.51727 1.37298L7.5909 0.511437C8.26864 0.4153 8.875 0.937489 8.875 1.61728V2.07527C8.69521 2.02932 8.50673 2.00488 8.3125 2.00488H1.5625ZM10 4.23903C10 3.50946 9.53042 2.88879 8.875 2.65877C8.69906 2.59702 8.50973 2.56342 8.3125 2.56342H1.5625C1.3543 2.56342 1.17251 2.4511 1.07525 2.28415C1.02739 2.202 1 2.10662 1 2.00488V9.82439C1 10.7498 1.75552 11.5 2.6875 11.5H8.3125C9.24448 11.5 10 10.7498 10 9.82439V4.23903Z" fill="#FF7F0A"/>
</svg>
