<svg width="32" height="28" viewBox="0 0 32 28" fill="none" xmlns="http://www.w3.org/2000/svg">
<rect x="0.5" y="0.5" width="26" height="27" rx="3.5" fill="white" stroke="#B1B1B1"/>
<line y1="-0.75" x2="15" y2="-0.75" transform="matrix(-1 0 0 1 21 8)" stroke="#DDDDDD" stroke-width="1.5"/>
<line y1="-0.75" x2="11" y2="-0.75" transform="matrix(-1 0 0 1 17 14)" stroke="#DDDDDD" stroke-width="1.5"/>
<line y1="-0.75" x2="9" y2="-0.75" transform="matrix(-1 0 0 1 15 20)" stroke="#DDDDDD" stroke-width="1.5"/>
<path d="M18.1846 18.3158C18.1846 15.1038 20.7884 12.5 24.0004 12.5C27.2123 12.5 29.8161 15.1038 29.8161 18.3158V25.8158H18.1846V18.3158Z" fill="url(#paint0_linear_3299_53753)" stroke="#FF6873"/>
<rect x="16.5" y="22.6055" width="15" height="4.89474" rx="1.5" fill="url(#paint1_linear_3299_53753)" stroke="#757575"/>
<path opacity="0.8" d="M21.0527 17.8945C21.0527 16.884 21.8948 15.3682 22.7369 15.3682" stroke="white" stroke-linecap="round"/>
<defs>
<linearGradient id="paint0_linear_3299_53753" x1="21.0002" y1="14.5" x2="25.5002" y2="24" gradientUnits="userSpaceOnUse">
<stop stop-color="#FF8F8F"/>
<stop offset="1" stop-color="#F46565"/>
</linearGradient>
<linearGradient id="paint1_linear_3299_53753" x1="24" y1="22.1055" x2="24" y2="28.0002" gradientUnits="userSpaceOnUse">
<stop stop-color="#AFBCC9"/>
<stop offset="1" stop-color="#93A4B5"/>
</linearGradient>
</defs>
</svg>
