<svg width="16" height="16" viewBox="0 0 16 16" fill="none" xmlns="http://www.w3.org/2000/svg">
<g clip-path="url(#clip0_828_19519)">
<path d="M8.1384 1.19995H8C5.21235 1.19995 2.95251 3.45979 2.95251 6.24744V9.65715C2.95251 9.75089 2.92136 9.84197 2.86397 9.91608L2.12413 10.8713C1.76785 11.3313 2.09571 12 2.67755 12H8H13.3225C13.9043 12 14.2322 11.3313 13.8759 10.8713L13.2569 10.0721C13.1211 9.89686 13.0475 9.68146 13.0475 9.45979L13.0475 6.10904C13.0475 3.39783 10.8496 1.19995 8.1384 1.19995Z" stroke="white" stroke-linecap="round" stroke-linejoin="round"/>
<path d="M9.75 14C9.75 14.8284 8.9665 15.5 8 15.5C7.0335 15.5 6.25 14.8284 6.25 14" stroke="white" stroke-linecap="round" stroke-linejoin="round"/>
</g>
<defs>
<clipPath id="clip0_828_19519">
<rect width="16" height="16" fill="white"/>
</clipPath>
</defs>
</svg>
