<svg width="80" height="80" viewBox="0 0 80 80" fill="none" xmlns="http://www.w3.org/2000/svg">
<rect width="80" height="80" rx="12" fill="#F6F6F6"/>
<path d="M18.6836 17.0078V16.9375H22.0117V16.1875H14.3125V16.9375H17.6523V17.0078C17.6465 18.4023 15.7949 19.5859 13.9844 19.8555L14.3477 20.582C15.9473 20.3066 17.5352 19.4395 18.168 18.1855C18.8008 19.4395 20.3887 20.3066 22.0117 20.582L22.3516 19.8555C20.5352 19.5859 18.6777 18.4023 18.6836 17.0078ZM13.4219 22.2344H17.6992V25.9492H18.6016V22.2344H22.9141V21.4727H13.4219V22.2344ZM33.212 23.8281H28.8409V21.2734H27.9386V23.8281H23.673V24.5898H33.212V23.8281ZM24.048 20.6289L24.4581 21.3906C26.0519 21.0625 27.7101 19.9844 28.3956 18.4902C29.0695 19.9902 30.7452 21.0625 32.3331 21.3906L32.7433 20.6289C30.9269 20.3184 28.8702 18.7832 28.8644 17.043V16.2461H27.9034V17.043C27.8976 18.7949 25.8702 20.3184 24.048 20.6289ZM37.6506 18.7305V17.3711H40.135V16.6094H34.2639V17.3711H36.7248V18.7305C36.719 20.5352 35.4182 22.5039 33.9241 23.2188L34.4748 23.9453C35.6643 23.3477 36.719 22.0234 37.2053 20.4941C37.6916 21.9355 38.7405 23.1367 39.9592 23.6875L40.4748 22.9609C38.9397 22.2988 37.6565 20.5 37.6506 18.7305ZM41.5881 25.9492H42.5139V15.5312H41.5881V25.9492ZM50.6294 17.5V16.1758H49.727V17.4648C49.7212 19.0645 48.643 20.5234 47.0786 21.0977L47.5708 21.8477C48.8013 21.3555 49.7505 20.3594 50.1899 19.0996C50.6352 20.2363 51.5493 21.1387 52.6919 21.5898L53.2075 20.875C51.6841 20.3242 50.6294 18.9531 50.6294 17.5ZM48.9653 25.7266H55.938V24.9531H49.8911V22.457H48.9653V25.7266ZM52.4575 18.7656H54.7778V23.3477H55.7036V15.543H54.7778V17.9922H52.4575V18.7656ZM61.8297 16.293H57.7867V21.3086H58.443C60.1363 21.3027 61.1207 21.2559 62.3453 21.0156L62.2516 20.2539C61.1324 20.4707 60.1832 20.5293 58.6656 20.5352V19.0938H61.7125V18.3672H58.6656V17.0664H61.8297V16.293ZM59.1461 23.1484H65.2633V25.9492H66.1656V22.3984H59.1461V23.1484ZM62.9664 21.7891H63.8219V19.0117H65.2867V21.8594H66.1656V15.543H65.2867V18.2617H63.8219V15.7422H62.9664V21.7891Z" fill="#111111"/>
<rect x="12.5" y="34.5" width="55" height="20" rx="7.5" stroke="#111111"/>
<path d="M21.4062 40.9395H20.6738V46.623H24.0039V40.9395H23.291V43.0586H21.4062V40.9395ZM21.4062 45.9883V43.6836H23.291V45.9883H21.4062ZM25.1074 48.3516H25.8398V44.1914H27.0508V48.791H27.793V40.1094H27.0508V43.5566H25.8398V40.2949H25.1074V48.3516ZM33.2203 43.1465H32.4684V44.4258H28.8941V45.0508H36.8043V44.4258H33.2203V43.1465ZM29.3727 42.9902L29.6656 43.6055C30.9986 43.376 32.3023 42.6875 32.8492 41.6768C33.3912 42.6777 34.6998 43.376 36.0133 43.6055L36.3258 42.9902C34.7926 42.7803 33.2301 41.8135 33.2301 40.6562V40.2461H32.4586V40.6562C32.4586 41.8135 30.9059 42.7803 29.3727 42.9902ZM29.8512 47.2773C29.8463 48.2441 30.9645 48.7715 32.8492 48.7715C34.7145 48.7715 35.8277 48.2441 35.8375 47.2773C35.8277 46.3154 34.7145 45.7783 32.8492 45.7734C30.9645 45.7783 29.8463 46.3154 29.8512 47.2773ZM30.6324 47.2773C30.6227 46.7012 31.443 46.3789 32.8492 46.3789C34.2408 46.3789 35.0611 46.7012 35.066 47.2773C35.0611 47.8486 34.2408 48.1807 32.8492 48.1758C31.443 48.1807 30.6227 47.8486 30.6324 47.2773ZM40.5422 42.7754V41.6426H42.6125V41.0078H37.7199V41.6426H39.7707V42.7754C39.7658 44.2793 38.6818 45.9199 37.4367 46.5156L37.8957 47.1211C38.8869 46.623 39.7658 45.5195 40.1711 44.2451C40.5764 45.4463 41.4504 46.4473 42.466 46.9062L42.8957 46.3008C41.6164 45.749 40.5471 44.25 40.5422 42.7754ZM43.8234 48.791H44.5949V40.1094H43.8234V48.791ZM53.1766 45.7051H47.3367V46.3203H52.4051V48.791H53.1766V45.7051ZM46.116 42.6777C46.1111 43.9131 47.073 44.7676 48.3719 44.7578C49.1287 44.7627 49.7684 44.4697 50.1688 43.9766H52.4051V45.2266H53.1766V40.1094H52.4051V41.3887H50.1639C49.7635 40.9004 49.1238 40.6025 48.3719 40.6074C47.073 40.6025 46.1111 41.4668 46.116 42.6777ZM46.8484 42.6777C46.8484 41.8623 47.4832 41.2617 48.3719 41.2617C49.2264 41.2617 49.8758 41.8623 49.8758 42.6777C49.8758 43.5225 49.2264 44.1133 48.3719 44.1133C47.4832 44.1133 46.8484 43.5225 46.8484 42.6777ZM50.5154 43.3418C50.5789 43.1367 50.618 42.9121 50.618 42.6777C50.618 42.4434 50.5789 42.2285 50.5105 42.0234H52.4051V43.3418H50.5154Z" fill="#111111"/>
<path d="M54.2489 57.3545V44.9932L56.0148 44.4045L57.7807 44.9932V49.1136L59.5466 48.525L60.7239 50.2909L62.4898 49.7023L64.2557 51.4682H66.0216L67.1989 52.6454V62.0636L64.8443 64.4181C64.8443 64.4181 61.9011 66.184 58.958 65.5954C56.0148 65.0068 52.483 62.0636 51.8943 60.8863C51.3057 59.7091 48.9512 53.2341 48.9512 53.2341L50.7171 52.6454L52.483 54.4113L54.2489 57.3545Z" fill="white"/>
<path d="M67.9884 52.8571C67.9884 52.8571 67.9884 52.8041 67.9884 52.7806C67.8471 51.6681 66.9524 50.8204 65.8575 50.7557C65.4396 50.7321 65.0452 50.8263 64.6979 51.0088C64.4684 49.9787 63.5265 49.2017 62.4435 49.2193C62.0432 49.2252 61.6723 49.3371 61.3486 49.5254C61.0013 48.6601 60.136 48.0597 59.1765 48.0833C58.8469 48.0892 58.5349 48.1716 58.2524 48.307V45.5816C58.2465 45.5404 58.2406 45.4992 58.2347 45.4638C58.011 44.3572 57.0103 43.5449 55.8978 43.5802C54.8265 43.6155 53.9082 44.4102 53.7081 45.4697C53.7022 45.5109 53.6963 45.5463 53.6963 45.5875V54.6878L53.3078 53.9049C52.9017 53.0926 52.1953 52.4863 51.33 52.2037C50.4647 51.9212 49.5406 51.9859 48.7283 52.398C48.4575 52.5334 48.2573 52.7688 48.1632 53.0514C48.069 53.3398 48.0925 53.6459 48.2161 53.899L51.6067 61.1274C52.3719 62.7638 53.6257 64.0883 55.1385 64.9536C56.4335 65.6952 57.9168 66.1073 59.465 66.1073H61.7665C65.2159 66.0896 68.0119 63.2818 68.0002 59.8324L67.9825 52.8571H67.9884ZM61.7665 64.8064H59.465C56.616 64.8182 53.9907 63.1582 52.7781 60.5741L49.4523 53.4869C49.9232 53.2927 50.4353 53.275 50.9239 53.434C51.4595 53.6106 51.8951 53.9873 52.1541 54.4935L53.7729 57.6898C53.9082 57.9547 54.2084 58.096 54.4969 58.0253C54.7853 57.9547 54.9913 57.6957 54.9913 57.3955L54.9796 45.6522C55.0855 45.2107 55.474 44.8811 55.9273 44.8693C56.3982 44.8517 56.822 45.1872 56.9338 45.6463L56.9456 49.7609L56.9574 54.5818C56.9574 54.8231 57.0869 55.0292 57.2811 55.141C57.3753 55.194 57.4871 55.2293 57.6049 55.2293C57.9639 55.2293 58.2524 54.9409 58.2465 54.5818L58.2347 50.2436C58.2936 49.755 58.6997 49.3783 59.1883 49.3665C59.6828 49.3547 60.1183 49.7314 60.189 50.2259V51.4149V54.57C60.2008 54.8114 60.3303 55.0174 60.5245 55.1292C60.6187 55.1822 60.7305 55.2175 60.8483 55.2175C61.2073 55.2175 61.4957 54.9291 61.4899 54.57V51.4326C61.5134 50.9264 61.9372 50.5084 62.4435 50.5026C62.9615 50.4967 63.4088 50.9146 63.4382 51.4091V52.8689C63.4382 52.8689 63.4441 52.8806 63.4441 52.8865V54.57C63.4441 54.8114 63.5795 55.0174 63.7738 55.1292C63.868 55.1822 63.9798 55.2175 64.0975 55.2175C64.4566 55.2175 64.745 54.9291 64.7391 54.57V52.916C64.8157 52.4097 65.2689 52.0212 65.7634 52.0507C66.2166 52.0742 66.6051 52.4451 66.6816 52.9101L66.6993 59.8383C66.7052 62.5755 64.486 64.8064 61.7547 64.8123L61.7665 64.8064Z" fill="#111111"/>
</svg>
