<svg width="20" height="20" viewBox="0 0 20 20" fill="none" xmlns="http://www.w3.org/2000/svg">
<circle cx="9.5" cy="10.5" r="7" fill="white" stroke="black"/>
<circle cx="7.5" cy="10.5" r="7" fill="white" stroke="black"/>
<path d="M4.95117 14H5.92676L6.65625 11.1875H7.78125L8.51074 14H9.47754L10.2114 11.1875H11.1475V10.4404H10.4048L11.1387 7.63672H10.1982L9.52588 10.4404H8.40527L7.70215 7.63672H6.73535L6.03223 10.4404H4.90723L4.23926 7.63672H3.29883L4.02832 10.4404H3.29004V11.1875H4.22168L4.95117 14ZM5.0874 11.1875H5.84326L5.4873 12.6025H5.42578L5.0874 11.1875ZM6.854 10.4404L7.19238 9.13086H7.24512L7.5835 10.4404H6.854ZM8.59424 11.1875H9.3457L9.00293 12.6113H8.9502L8.59424 11.1875Z" fill="black"/>
</svg>
