<svg width="20" height="20" viewBox="0 0 20 20" fill="none" xmlns="http://www.w3.org/2000/svg">
<path d="M13 9V6C13 4.34315 11.6569 3 10 3V3C8.34315 3 7 4.34315 7 6V9" stroke="#111111"/>
<path d="M4.5 8C4.5 7.72386 4.72386 7.5 5 7.5H15C15.2761 7.5 15.5 7.72386 15.5 8V16C15.5 16.2761 15.2761 16.5 15 16.5H5C4.72386 16.5 4.5 16.2761 4.5 16V8Z" fill="white" stroke="#111111"/>
<path d="M10.2227 14.2852L10.1523 12.4688L11.6992 13.4414L12.0977 12.75L10.4922 11.9062L12.0977 11.0508L11.6992 10.3594L10.1523 11.332L10.2227 9.51562H9.42578L9.49609 11.332L7.94922 10.3594L7.55078 11.0508L9.16797 11.9062L7.55078 12.75L7.94922 13.4414L9.49609 12.4688L9.42578 14.2852H10.2227Z" fill="#111111"/>
</svg>
