<svg width="20" height="20" viewBox="0 0 20 20" fill="none" xmlns="http://www.w3.org/2000/svg">
<path fill-rule="evenodd" clip-rule="evenodd" d="M5 3C2.79086 3 1 4.79086 1 7V10C1 12.2091 2.79086 14 5 14H7.88889L11 17.5L10.2222 14H13C15.2091 14 17 12.2091 17 10V7C17 4.79086 15.2091 3 13 3H5Z" fill="white"/>
<path d="M7.88889 14L8.26259 13.6678C8.16771 13.5611 8.03171 13.5 7.88889 13.5V14ZM11 17.5L10.6263 17.8322C10.7776 18.0024 11.0248 18.0489 11.2276 17.9452C11.4304 17.8415 11.5375 17.6139 11.4881 17.3915L11 17.5ZM10.2222 14V13.5C10.0706 13.5 9.9271 13.5688 9.8322 13.6871C9.7373 13.8054 9.70123 13.9604 9.73413 14.1085L10.2222 14ZM1.5 7C1.5 5.067 3.067 3.5 5 3.5V2.5C2.51472 2.5 0.5 4.51472 0.5 7H1.5ZM1.5 10V7H0.5V10H1.5ZM5 13.5C3.067 13.5 1.5 11.933 1.5 10H0.5C0.5 12.4853 2.51472 14.5 5 14.5V13.5ZM7.88889 13.5H5V14.5H7.88889V13.5ZM11.3737 17.1678L8.26259 13.6678L7.51518 14.3322L10.6263 17.8322L11.3737 17.1678ZM9.73413 14.1085L10.5119 17.6085L11.4881 17.3915L10.7103 13.8915L9.73413 14.1085ZM13 13.5H10.2222V14.5H13V13.5ZM16.5 10C16.5 11.933 14.933 13.5 13 13.5V14.5C15.4853 14.5 17.5 12.4853 17.5 10H16.5ZM16.5 7V10H17.5V7H16.5ZM13 3.5C14.933 3.5 16.5 5.067 16.5 7H17.5C17.5 4.51472 15.4853 2.5 13 2.5V3.5ZM5 3.5H13V2.5H5V3.5Z" fill="black"/>
<circle cx="5" cy="8" r="1" fill="black"/>
<circle cx="9" cy="8" r="1" fill="black"/>
<circle cx="13" cy="8" r="1" fill="black"/>
</svg>
