<svg width="75" height="63" viewBox="0 0 75 63" fill="none" xmlns="http://www.w3.org/2000/svg">
<path d="M22.6482 34.8702C21.9362 34.8702 21.263 35.045 20.674 35.3557C19.8973 34.333 18.6675 33.6663 17.2888 33.6663C16.6091 33.6663 15.9683 33.8281 15.3987 34.1129C14.3307 32.9867 12.8226 32.2747 11.1396 32.2747C9.35962 32.2747 7.76732 33.0708 6.69284 34.3201C4.60214 34.4366 2.91922 36.0548 2.70562 38.1196C1.12626 38.741 0 40.275 0 42.0809C0 44.4305 1.90299 46.3335 4.25261 46.3335C5.43065 46.3335 6.49866 45.8545 7.26892 45.0843C8.04565 45.9646 9.18486 46.5212 10.4535 46.5212C11.7999 46.5212 12.9973 45.8934 13.774 44.9224C14.5573 45.8416 15.7159 46.4306 17.0169 46.4306C19.0494 46.4306 20.7452 45.0066 21.166 43.1036C21.632 43.2784 22.1304 43.3755 22.6547 43.3755C25.0043 43.3755 26.9073 41.4725 26.9073 39.1228C26.9073 36.7732 25.0043 34.8702 22.6547 34.8702H22.6482Z" fill="url(#paint0_linear_1360_37394)"/>
<path d="M34.2471 15.4443C33.3474 15.4443 32.4671 15.5091 31.5997 15.6126C35.6258 19.4963 38.1307 24.9464 38.1307 30.979C38.1307 41.8791 29.9621 50.8633 19.418 52.1708C23.2628 55.8797 28.4863 58.1646 34.2471 58.1646C46.0469 58.1646 55.6072 48.6043 55.6072 36.8045C55.6072 25.0046 46.0469 15.4443 34.2471 15.4443Z" fill="#FFD000"/>
<path d="M74.9996 49.0129C74.9996 45.4917 72.1451 42.6307 68.6175 42.6307C67.2193 42.6307 65.9313 43.0838 64.8827 43.8476C64.2872 40.9349 61.7175 38.7471 58.63 38.7471C55.5425 38.7471 53.0246 40.896 52.3967 43.7635C51.5876 43.3945 50.6944 43.1809 49.7493 43.1809C46.2282 43.1809 43.3672 46.0354 43.3672 49.5631C43.3672 52.4111 45.2313 54.819 47.8075 55.641C47.8075 55.6475 47.8075 55.6604 47.8075 55.6669C47.8075 59.1881 50.662 62.049 54.1897 62.049C56.2221 62.049 58.0215 61.0975 59.1931 59.6217C60.2676 60.4438 61.6074 60.9422 63.0638 60.9422C66.3261 60.9422 69.0058 58.4955 69.3942 55.3432C72.5464 54.9549 74.9931 52.2752 74.9931 49.0129H74.9996Z" fill="url(#paint1_linear_1360_37394)"/>
<path d="M15.282 5.55688L16.5623 12.1485L23.1539 13.4288L16.5623 14.709L15.282 21.3006L14.0018 14.709L7.41016 13.4288L14.0018 12.1485L15.282 5.55688Z" fill="#FFD000"/>
<path d="M64.3631 13.8914L65.1915 18.1565L69.4567 18.9849L65.1915 19.8133L64.3631 24.0785L63.5347 19.8133L59.2695 18.9849L63.5347 18.1565L64.3631 13.8914Z" fill="#FFD000"/>
<path d="M43.0656 0L43.5927 2.71421L46.3069 3.24136L43.5927 3.76852L43.0656 6.48273L42.5384 3.76852L39.8242 3.24136L42.5384 2.71421L43.0656 0Z" fill="#FFD000"/>
<defs>
<linearGradient id="paint0_linear_1360_37394" x1="13.4536" y1="32.2747" x2="13.4536" y2="46.5212" gradientUnits="userSpaceOnUse">
<stop stop-color="#ECECEC"/>
<stop offset="0.520833" stop-color="#E0E0E0"/>
<stop offset="1" stop-color="#F3F3F3"/>
</linearGradient>
<linearGradient id="paint1_linear_1360_37394" x1="59.1834" y1="38.7471" x2="59.1834" y2="62.049" gradientUnits="userSpaceOnUse">
<stop stop-color="#ECECEC"/>
<stop offset="0.520833" stop-color="#E0E0E0"/>
<stop offset="1" stop-color="#F3F3F3"/>
</linearGradient>
</defs>
</svg>
