<svg width="20" height="20" viewBox="0 0 20 20" fill="none" xmlns="http://www.w3.org/2000/svg">
<path d="M16.5 14C16.5 14.2609 16.2755 14.6316 15.6048 14.967C14.964 15.2874 14.0438 15.5 13 15.5C11.9562 15.5 11.036 15.2874 10.3952 14.967C9.72447 14.6316 9.5 14.2609 9.5 14C9.5 13.9886 9.5002 13.4772 9.50059 12.9658L9.50132 12.2614C9.50141 12.2004 9.50153 12.1487 9.50163 12.1063C9.50187 12.0005 9.50198 11.9531 9.50119 11.9648C9.51898 11.7028 9.76712 11.3368 10.4353 11.0132C11.0746 10.7037 11.9785 10.5 13 10.5C14.0215 10.5 14.9254 10.7037 15.5647 11.0132C16.2329 11.3368 16.481 11.7028 16.4988 11.9648C16.498 11.9531 16.4981 12.0005 16.4984 12.1063C16.4985 12.1487 16.4986 12.2004 16.4987 12.2614L16.4994 12.9658C16.4998 13.4772 16.5 13.9886 16.5 14Z" fill="white" stroke="black"/>
<path d="M16.5 12C16.5 12.2609 16.2755 12.6316 15.6048 12.967C14.964 13.2874 14.0438 13.5 13 13.5C11.9562 13.5 11.036 13.2874 10.3952 12.967C9.72447 12.6316 9.5 12.2609 9.5 12C9.5 11.9886 9.5002 11.4772 9.50059 10.9658L9.50132 10.2614C9.50141 10.2004 9.50153 10.1487 9.50163 10.1063C9.50187 10.0005 9.50198 9.95314 9.50119 9.96478C9.51898 9.7028 9.76712 9.33684 10.4353 9.01325C11.0746 8.70366 11.9785 8.5 13 8.5C14.0215 8.5 14.9254 8.70366 15.5647 9.01325C16.2329 9.33684 16.481 9.7028 16.4988 9.96478C16.498 9.95314 16.4981 10.0005 16.4984 10.1063C16.4985 10.1487 16.4986 10.2004 16.4987 10.2614L16.4994 10.9658C16.4998 11.4772 16.5 11.9886 16.5 12Z" fill="white" stroke="black"/>
<path d="M16.5 10C16.5 10.2609 16.2755 10.6316 15.6048 10.967C14.964 11.2874 14.0438 11.5 13 11.5C11.9562 11.5 11.036 11.2874 10.3952 10.967C9.72447 10.6316 9.5 10.2609 9.5 10C9.5 9.98863 9.5002 9.47725 9.50059 8.96576L9.50132 8.26138C9.50141 8.20037 9.50153 8.14866 9.50163 8.10632C9.50187 8.00054 9.50198 7.95314 9.50119 7.96478C9.51898 7.7028 9.76712 7.33684 10.4353 7.01325C11.0746 6.70366 11.9785 6.5 13 6.5C14.0215 6.5 14.9254 6.70366 15.5647 7.01325C16.2329 7.33684 16.481 7.7028 16.4988 7.96478C16.498 7.95314 16.4981 8.00053 16.4984 8.1063C16.4985 8.14865 16.4986 8.20036 16.4987 8.26138L16.4994 8.96576C16.4998 9.47725 16.5 9.98863 16.5 10Z" fill="white" stroke="black"/>
<path d="M16.5 8C16.5 8.26087 16.2755 8.63165 15.6048 8.967C14.964 9.2874 14.0438 9.5 13 9.5C11.9562 9.5 11.036 9.2874 10.3952 8.967C9.72447 8.63165 9.5 8.26087 9.5 8C9.5 7.73913 9.72447 7.36835 10.3952 7.033C11.036 6.7126 11.9562 6.5 13 6.5C14.0438 6.5 14.964 6.7126 15.6048 7.033C16.2755 7.36835 16.5 7.73913 16.5 8Z" fill="white" stroke="black"/>
<circle cx="6.5" cy="10.5" r="6" fill="white" stroke="black"/>
<path d="M4.65039 14H5.61719V11.7676H6.91797C8.39453 11.7676 9.12402 10.8755 9.12402 9.70215C9.12402 8.52441 8.39893 7.63672 6.91797 7.63672H4.65039V14ZM5.61719 10.9414V8.46289H6.82129C7.75732 8.46729 8.14844 8.98145 8.14844 9.70215C8.14844 10.4185 7.75732 10.9458 6.82129 10.9414H5.61719Z" fill="black"/>
</svg>
