<svg width="14" height="14" viewBox="0 0 14 14" fill="none" xmlns="http://www.w3.org/2000/svg">
<circle cx="7" cy="7" r="7" fill="#FFAB00"/>
<path d="M5.12891 4.34375H7.44141C7.86068 4.34375 8.22526 4.42578 8.53516 4.58984C8.84505 4.7513 9.08333 4.97917 9.25 5.27344C9.41667 5.56771 9.5 5.90755 9.5 6.29297C9.5 6.68099 9.41536 7.02083 9.24609 7.3125C9.07943 7.60156 8.83724 7.82682 8.51953 7.98828C8.20182 8.14714 7.82943 8.22656 7.40234 8.22656H5.96094V7.17188H7.16406C7.36979 7.17188 7.54427 7.13672 7.6875 7.06641C7.83073 6.99349 7.9388 6.89062 8.01172 6.75781C8.08464 6.625 8.12109 6.47005 8.12109 6.29297C8.12109 6.11328 8.08464 5.95833 8.01172 5.82812C7.9388 5.69792 7.82943 5.59766 7.68359 5.52734C7.54036 5.45703 7.36589 5.42188 7.16016 5.42188H6.45703V10H5.12891V4.34375Z" fill="white"/>
</svg>
