<svg width="20" height="20" viewBox="0 0 20 20" fill="none" xmlns="http://www.w3.org/2000/svg">
<rect x="2.5" y="3.5" width="15" height="13" rx="1.5" fill="white" stroke="black"/>
<line x1="3" y1="6.5" x2="17" y2="6.5" stroke="black"/>
<path d="M10.6885 11.5254C11.4199 11.5254 11.8267 10.9922 11.8301 10.2061C11.8267 9.42334 11.4302 8.87988 10.6885 8.87988C9.96729 8.87988 9.54688 9.42334 9.54688 10.2061C9.54688 10.9854 9.94678 11.5254 10.6885 11.5254ZM10.2441 10.2061C10.2476 9.78564 10.3979 9.4917 10.6885 9.48828C10.9961 9.48828 11.1294 9.77881 11.1328 10.2061C11.1294 10.6333 10.9824 10.9136 10.6885 10.917C10.4014 10.9136 10.2476 10.6333 10.2441 10.2061ZM10.2578 14H11.0234L14.4277 9.05078H13.6621L10.2578 14ZM12.8896 12.8447C12.8896 13.624 13.2896 14.1641 14.0244 14.1641C14.7627 14.1641 15.1694 13.6309 15.1729 12.8447C15.1694 12.062 14.7729 11.522 14.0244 11.5186C13.3101 11.522 12.8896 12.062 12.8896 12.8447ZM13.5869 12.8447C13.5903 12.4243 13.7373 12.1304 14.0244 12.1338C14.3354 12.127 14.4722 12.4175 14.4756 12.8447C14.4722 13.272 14.3252 13.5557 14.0244 13.5557C13.7441 13.5557 13.5903 13.272 13.5869 12.8447Z" fill="black"/>
</svg>
