<svg width="45" height="54" viewBox="0 0 45 54" fill="none" xmlns="http://www.w3.org/2000/svg">
<path fill-rule="evenodd" clip-rule="evenodd" d="M8.33276 9.13437C7.37422 9.68326 6.15221 9.35117 5.60332 8.39264C5.05443 7.4341 5.38652 6.21209 6.34506 5.6632L15.023 0.693952C15.9815 0.145065 17.2035 0.477152 17.7524 1.43569C18.3013 2.39423 17.9692 3.61624 17.0107 4.16513L8.33276 9.13437ZM11.7344 10.1352L19.9444 5.48173L27.8324 0.964842C28.7909 0.415954 30.0129 0.748041 30.5618 1.70658C31.1107 2.66512 30.7786 3.88713 29.8201 4.43602L28.6672 5.09621C27.7727 5.60841 27.7755 6.8994 28.6722 7.40766C29.0809 7.63929 29.5815 7.63819 29.9891 7.40476L39.962 1.69396C40.9206 1.14507 42.1426 1.47716 42.6915 2.4357C43.2404 3.39424 42.9083 4.61625 41.9497 5.16513L33.4841 10.0128C33.4368 10.0399 33.4369 10.1083 33.4844 10.1352L35.5478 11.3484C36.1664 11.7122 36.9325 11.7166 37.5553 11.36L41.738 8.96485C42.6966 8.41596 43.9186 8.74805 44.4675 9.70658C45.0163 10.6651 44.6843 11.8871 43.7257 12.436L42.3176 13.2424C41.5165 13.7011 41.5099 14.8541 42.3056 15.3221C43.518 16.0349 44.2669 17.332 44.278 18.7383L44.3594 28.9712L44.278 39.2041C44.2669 40.6104 43.518 41.9076 42.3056 42.6204L33.4844 47.8073L24.5818 52.8533C23.3583 53.5467 21.8605 53.5467 20.637 52.8533L11.7344 47.8073L2.91312 42.6204C1.7008 41.9076 0.951898 40.6104 0.940718 39.2041L0.859375 28.9712L0.940718 18.7383C0.951898 17.332 1.7008 16.0349 2.91312 15.3221L11.7344 10.1352Z" fill="#75CDFF"/>
<path fill-rule="evenodd" clip-rule="evenodd" d="M8.33276 9.13437C7.37422 9.68326 6.15221 9.35117 5.60332 8.39264C5.05443 7.4341 5.38652 6.21209 6.34506 5.6632L15.023 0.693952C15.9815 0.145065 17.2035 0.477152 17.7524 1.43569C18.3013 2.39423 17.9692 3.61624 17.0107 4.16513L8.33276 9.13437ZM11.7344 10.1352L19.9444 5.48173L27.8324 0.964842C28.7909 0.415954 30.0129 0.748041 30.5618 1.70658C31.1107 2.66512 30.7786 3.88713 29.8201 4.43602L28.6672 5.09621C27.7727 5.60841 27.7755 6.8994 28.6722 7.40766C29.0809 7.63929 29.5815 7.63819 29.9891 7.40476L39.962 1.69396C40.9206 1.14507 42.1426 1.47716 42.6915 2.4357C43.2404 3.39424 42.9083 4.61625 41.9497 5.16513L33.4841 10.0128C33.4368 10.0399 33.4369 10.1083 33.4844 10.1352L35.5478 11.3484C36.1664 11.7122 36.9325 11.7166 37.5553 11.36L41.738 8.96485C42.6966 8.41596 43.9186 8.74805 44.4675 9.70658C45.0163 10.6651 44.6843 11.8871 43.7257 12.436L42.3176 13.2424C41.5165 13.7011 41.5099 14.8541 42.3056 15.3221C43.518 16.0349 44.2669 17.332 44.278 18.7383L44.3594 28.9712L44.278 39.2041C44.2669 40.6104 43.518 41.9076 42.3056 42.6204L33.4844 47.8073L24.5818 52.8533C23.3583 53.5467 21.8605 53.5467 20.637 52.8533L11.7344 47.8073L2.91312 42.6204C1.7008 41.9076 0.951898 40.6104 0.940718 39.2041L0.859375 28.9712L0.940718 18.7383C0.951898 17.332 1.7008 16.0349 2.91312 15.3221L11.7344 10.1352Z" fill="url(#paint0_linear_2176_106679)"/>
<path d="M21.4999 10.9621C22.1881 10.5721 23.0306 10.5721 23.7189 10.9621L30.7168 14.9286L37.6509 19.0058C38.3329 19.4068 38.7541 20.1364 38.7604 20.9275L38.8244 28.9712L38.7604 37.0149C38.7541 37.8059 38.3329 38.5356 37.6509 38.9366L30.7169 43.0138L23.7188 46.9802C23.0306 47.3703 22.1881 47.3703 21.4999 46.9802L14.5018 43.0137L7.56781 38.9366C6.88588 38.5356 6.46463 37.8059 6.45834 37.0149L6.3944 28.9712L6.45834 20.9275C6.46463 20.1364 6.88588 19.4068 7.56782 19.0058L14.5019 14.9286L21.4999 10.9621Z" fill="white" stroke="black" stroke-width="1.5"/>
<path d="M37.6094 37.6379L22.6094 46.2712L23.1094 30.4712L37.6094 20.9712V37.6379Z" fill="#DDDDDD"/>
<path d="M11.2344 32.2533V24.2082L28.3094 13.6714L33.9094 16.8714L18.2782 27.4263V35.4714L14.7563 30.6443L11.2344 32.2533Z" fill="#75BDFF" stroke="url(#paint1_linear_2176_106679)" stroke-width="1.5"/>
<defs>
<linearGradient id="paint0_linear_2176_106679" x1="20.417" y1="24.4935" x2="29.4754" y2="21.6942" gradientUnits="userSpaceOnUse">
<stop stop-color="#82D2FF"/>
<stop offset="1" stop-color="#66A5FF"/>
</linearGradient>
<linearGradient id="paint1_linear_2176_106679" x1="31.3594" y1="18.7003" x2="33.3594" y2="16.2003" gradientUnits="userSpaceOnUse">
<stop stop-color="#2B57AD"/>
<stop offset="1" stop-color="#000E29"/>
</linearGradient>
</defs>
</svg>
