<svg width="14" height="14" viewBox="0 0 14 14" fill="none" xmlns="http://www.w3.org/2000/svg">
<path opacity="0.9" d="M6.30015 0.6857C6.68896 0.304754 7.31104 0.304754 7.69985 0.6857L8.08289 1.061C8.33288 1.30593 8.69273 1.40235 9.03169 1.31523L9.55106 1.18173C10.0783 1.04623 10.617 1.35727 10.7632 1.88158L10.9073 2.39812C11.0013 2.73523 11.2648 2.99866 11.6019 3.09269L12.1184 3.23676C12.6427 3.38301 12.9538 3.92175 12.8183 4.44894L12.6848 4.96831C12.5976 5.30728 12.6941 5.66712 12.939 5.91711L13.3143 6.30015C13.6952 6.68896 13.6952 7.31104 13.3143 7.69985L12.939 8.08289C12.6941 8.33288 12.5976 8.69272 12.6848 9.03169L12.8183 9.55106C12.9538 10.0783 12.6427 10.617 12.1184 10.7632L11.6019 10.9073C11.2648 11.0013 11.0013 11.2648 10.9073 11.6019L10.7632 12.1184C10.617 12.6427 10.0783 12.9538 9.55106 12.8183L9.03168 12.6848C8.69272 12.5976 8.33288 12.6941 8.08289 12.939L7.69985 13.3143C7.31104 13.6952 6.68896 13.6952 6.30015 13.3143L5.91711 12.939C5.66712 12.6941 5.30728 12.5976 4.96831 12.6848L4.44894 12.8183C3.92175 12.9538 3.38301 12.6427 3.23676 12.1184L3.09269 11.6019C2.99866 11.2648 2.73523 11.0013 2.39812 10.9073L1.88158 10.7632C1.35727 10.617 1.04623 10.0783 1.18173 9.55106L1.31523 9.03169C1.40235 8.69272 1.30593 8.33288 1.061 8.08289L0.6857 7.69985C0.304754 7.31104 0.304754 6.68896 0.6857 6.30015L1.061 5.91711C1.30593 5.66712 1.40235 5.30728 1.31523 4.96831L1.18173 4.44894C1.04623 3.92175 1.35727 3.38301 1.88158 3.23676L2.39812 3.09269C2.73523 2.99866 2.99866 2.73523 3.09269 2.39812L3.23676 1.88158C3.38301 1.35727 3.92175 1.04623 4.44894 1.18173L4.96831 1.31523C5.30728 1.40235 5.66712 1.30593 5.91711 1.061L6.30015 0.6857Z" fill="#DC0A0A"/>
<path d="M8.7998 5L4.7998 9" stroke="white" stroke-width="1.4" stroke-linecap="round"/>
<circle cx="5.0998" cy="4.8" r="0.8" fill="white"/>
<circle cx="8.5998" cy="8.8" r="0.8" fill="white"/>
</svg>
