<svg width="120" height="54" viewBox="0 0 120 54" fill="none" xmlns="http://www.w3.org/2000/svg">
<path d="M10.5057 9.43269C24.8855 2.04317 39.6148 13.5074 42.3861 25.0102C44.8389 35.2429 36.5337 45.4947 26.9169 42.0336C22.7977 40.5652 15.6105 33.8293 20.1149 27.4032C12.741 27.8636 10.5759 20.1586 13.6797 17.2633C9.02206 18.5112 5.52992 12.6673 10.5167 9.41709L10.5057 9.43269Z" fill="#D9D9D9"/>
<path d="M10.5057 9.43269C24.8855 2.04317 39.6148 13.5074 42.3861 25.0102C44.8389 35.2429 36.5337 45.4947 26.9169 42.0336C22.7977 40.5652 15.6105 33.8293 20.1149 27.4032C12.741 27.8636 10.5759 20.1586 13.6797 17.2633C9.02206 18.5112 5.52992 12.6673 10.5167 9.41709L10.5057 9.43269Z" fill="url(#paint0_linear_1360_37408)"/>
<path d="M109.029 9.4095C94.6497 2.01998 79.9204 13.4842 77.149 24.987C74.6962 35.2197 83.0014 45.4715 92.6183 42.0104C96.7375 40.542 103.925 33.8062 99.4202 27.38C106.794 27.8404 108.959 20.1354 105.855 17.2402C110.513 18.488 114.005 12.6441 109.018 9.3939L109.029 9.4095Z" fill="#D9D9D9"/>
<path d="M109.029 9.4095C94.6497 2.01998 79.9204 13.4842 77.149 24.987C74.6962 35.2197 83.0014 45.4715 92.6183 42.0104C96.7375 40.542 103.925 33.8062 99.4202 27.38C106.794 27.8404 108.959 20.1354 105.855 17.2402C110.513 18.488 114.005 12.6441 109.018 9.3939L109.029 9.4095Z" fill="url(#paint1_linear_1360_37408)"/>
<path d="M36 19.2012H83.9974V49.9993C83.9974 52.2084 82.2065 53.9993 79.9974 53.9993H40C37.7909 53.9993 36 52.2084 36 49.9993V19.2012Z" fill="#81C2FF"/>
<rect x="55.1992" y="19.2012" width="10.7994" height="8.39955" fill="#5695EE"/>
<path d="M41.9997 6.00171H77.9977L83.9974 19.201H36L41.9997 6.00171Z" fill="#66A5FF"/>
<path d="M40.5583 9.60132H79.4362L81.5961 14.4011H38.3984L40.5583 9.60132Z" fill="#518BFB"/>
<rect x="55.1992" y="6.00171" width="10.7994" height="13.1993" fill="#2E79E3"/>
<path d="M59.2578 34.6152H57.6328V41.5088H59.2578V34.6152ZM49.1396 39.7314L50.0283 40.8613C50.8154 40.3853 51.3042 39.6299 51.6025 38.7539C51.8818 39.668 52.3643 40.4741 53.1768 40.9883C53.9766 40.4932 54.4526 39.6934 54.7319 38.7856C55.0303 39.6616 55.5254 40.4043 56.3252 40.8613L57.2012 39.7314C55.8491 38.9126 55.4873 37.3955 55.4873 35.9482V35.2881H53.9766V35.9482C53.9702 36.9829 53.8242 38.1572 53.1704 39.0586C52.5103 38.1509 52.3643 36.9639 52.3643 35.9482V35.2881H50.8408V35.9482C50.8408 37.3511 50.498 38.9062 49.1396 39.7314ZM50.9678 43.9082C50.9614 45.3618 52.5864 46.1743 55.1572 46.168C57.709 46.1743 59.3086 45.3618 59.3213 43.9082C59.3086 42.4927 57.709 41.6421 55.1572 41.6484C52.5864 41.6421 50.9614 42.4927 50.9678 43.9082ZM52.6436 43.9082C52.6436 43.2417 53.5068 42.9307 55.1572 42.9307C56.7822 42.9307 57.6392 43.2417 57.6455 43.9082C57.6392 44.562 56.7822 44.8857 55.1572 44.8857C53.5068 44.8857 52.6436 44.562 52.6436 43.9082ZM70.4932 34.6152H68.8682V41.5088H70.4932V34.6152ZM60.375 39.7314L61.2637 40.8613C62.0508 40.3853 62.5396 39.6299 62.8379 38.7539C63.1172 39.668 63.5996 40.4741 64.4121 40.9883C65.2119 40.4932 65.688 39.6934 65.9673 38.7856C66.2656 39.6616 66.7607 40.4043 67.5605 40.8613L68.4365 39.7314C67.0845 38.9126 66.7227 37.3955 66.7227 35.9482V35.2881H65.2119V35.9482C65.2056 36.9829 65.0596 38.1572 64.4058 39.0586C63.7456 38.1509 63.5996 36.9639 63.5996 35.9482V35.2881H62.0762V35.9482C62.0762 37.3511 61.7334 38.9062 60.375 39.7314ZM62.2031 43.9082C62.1968 45.3618 63.8218 46.1743 66.3926 46.168C68.9443 46.1743 70.5439 45.3618 70.5566 43.9082C70.5439 42.4927 68.9443 41.6421 66.3926 41.6484C63.8218 41.6421 62.1968 42.4927 62.2031 43.9082ZM63.8789 43.9082C63.8789 43.2417 64.7422 42.9307 66.3926 42.9307C68.0176 42.9307 68.8745 43.2417 68.8809 43.9082C68.8745 44.562 68.0176 44.8857 66.3926 44.8857C64.7422 44.8857 63.8789 44.562 63.8789 43.9082Z" fill="white"/>
<defs>
<linearGradient id="paint0_linear_1360_37408" x1="24.9167" y1="9.5" x2="24.9167" y2="39" gradientUnits="userSpaceOnUse">
<stop stop-color="#ECECEC"/>
<stop offset="0.520833" stop-color="#E0E0E0"/>
<stop offset="1" stop-color="#F3F3F3"/>
</linearGradient>
<linearGradient id="paint1_linear_1360_37408" x1="94.6185" y1="9.47681" x2="94.6185" y2="38.9768" gradientUnits="userSpaceOnUse">
<stop stop-color="#ECECEC"/>
<stop offset="0.520833" stop-color="#E0E0E0"/>
<stop offset="1" stop-color="#F3F3F3"/>
</linearGradient>
</defs>
</svg>
