<svg width="20" height="20" viewBox="0 0 20 20" fill="none" xmlns="http://www.w3.org/2000/svg">
<path d="M18.5 15C18.5 15.2609 18.2755 15.6316 17.6048 15.967C16.964 16.2874 16.0438 16.5 15 16.5C13.9562 16.5 13.036 16.2874 12.3952 15.967C11.7245 15.6316 11.5 15.2609 11.5 15C11.5 14.9886 11.5002 14.4772 11.5006 13.9658L11.5013 13.2614C11.5014 13.2004 11.5015 13.1487 11.5016 13.1063C11.5019 13.0005 11.502 12.9531 11.5012 12.9648C11.519 12.7028 11.7671 12.3368 12.4353 12.0132C13.0746 11.7037 13.9785 11.5 15 11.5C16.0215 11.5 16.9254 11.7037 17.5647 12.0132C18.2329 12.3368 18.481 12.7028 18.4988 12.9648C18.498 12.9531 18.4981 13.0005 18.4984 13.1063C18.4985 13.1487 18.4986 13.2004 18.4987 13.2614L18.4994 13.9658C18.4998 14.4772 18.5 14.9886 18.5 15Z" fill="white" stroke="#2A81FD"/>
<path d="M18.5 13C18.5 13.2609 18.2755 13.6316 17.6048 13.967C16.964 14.2874 16.0438 14.5 15 14.5C13.9562 14.5 13.036 14.2874 12.3952 13.967C11.7245 13.6316 11.5 13.2609 11.5 13C11.5 12.9886 11.5002 12.4772 11.5006 11.9658L11.5013 11.2614C11.5014 11.2004 11.5015 11.1487 11.5016 11.1063C11.5019 11.0005 11.502 10.9531 11.5012 10.9648C11.519 10.7028 11.7671 10.3368 12.4353 10.0132C13.0746 9.70366 13.9785 9.5 15 9.5C16.0215 9.5 16.9254 9.70366 17.5647 10.0132C18.2329 10.3368 18.481 10.7028 18.4988 10.9648C18.498 10.9531 18.4981 11.0005 18.4984 11.1063C18.4985 11.1487 18.4986 11.2004 18.4987 11.2614L18.4994 11.9658C18.4998 12.4772 18.5 12.9886 18.5 13Z" fill="white" stroke="#2A81FD"/>
<path d="M18.5 11C18.5 11.2609 18.2755 11.6316 17.6048 11.967C16.964 12.2874 16.0438 12.5 15 12.5C13.9562 12.5 13.036 12.2874 12.3952 11.967C11.7245 11.6316 11.5 11.2609 11.5 11C11.5 10.9886 11.5002 10.4772 11.5006 9.96576L11.5013 9.26138C11.5014 9.20037 11.5015 9.14866 11.5016 9.10632C11.5019 9.00054 11.502 8.95314 11.5012 8.96478C11.519 8.7028 11.7671 8.33684 12.4353 8.01325C13.0746 7.70366 13.9785 7.5 15 7.5C16.0215 7.5 16.9254 7.70366 17.5647 8.01325C18.2329 8.33684 18.481 8.7028 18.4988 8.96478C18.498 8.95314 18.4981 9.00053 18.4984 9.1063C18.4985 9.14865 18.4986 9.20036 18.4987 9.26138L18.4994 9.96576C18.4998 10.4772 18.5 10.9886 18.5 11Z" fill="white" stroke="#2A81FD"/>
<path d="M18.5 9C18.5 9.26087 18.2755 9.63165 17.6048 9.967C16.964 10.2874 16.0438 10.5 15 10.5C13.9562 10.5 13.036 10.2874 12.3952 9.967C11.7245 9.63165 11.5 9.26087 11.5 9C11.5 8.73913 11.7245 8.36835 12.3952 8.033C13.036 7.7126 13.9562 7.5 15 7.5C16.0438 7.5 16.964 7.7126 17.6048 8.033C18.2755 8.36835 18.5 8.73913 18.5 9Z" fill="white" stroke="#2A81FD"/>
<circle cx="9" cy="10" r="8" fill="#0E6BF0"/>
<path d="M6.85 14V14.15H7H8.08055H8.23055V14V11.6942H9.53438C10.3896 11.6942 11.0474 11.4393 11.4917 10.9987C11.9356 10.5584 12.15 9.94907 12.15 9.2721C12.15 8.59307 11.9371 7.98356 11.4935 7.5437C11.0496 7.10353 10.3917 6.85 9.53438 6.85H7H6.85V7V14ZM9.42702 10.4854H9.42633H8.23055V8.05884H9.42596C9.92268 8.06119 10.2502 8.19614 10.454 8.40081C10.658 8.60575 10.7596 8.90232 10.7596 9.2721C10.7596 9.63944 10.658 9.93872 10.4536 10.1456C10.2498 10.3518 9.92268 10.4877 9.42702 10.4854ZM9.42633 10.6354H8.23055H9.42633Z" fill="#EAF2FF" stroke="#EAF2FF" stroke-width="0.3"/>
</svg>
