<svg width="20" height="20" viewBox="0 0 20 20" fill="none" xmlns="http://www.w3.org/2000/svg">
<path d="M14.6139 15.5402L15.9808 9.54021C16.0022 9.44627 16.0058 9.34746 15.9912 9.25153C15.9766 9.1556 15.9444 9.06517 15.8969 8.98732C15.8494 8.90948 15.788 8.84635 15.7176 8.80289C15.6471 8.75943 15.5695 8.73682 15.4908 8.73684H12.5683C12.5264 8.73684 12.4851 8.72512 12.4473 8.70254C12.4096 8.67996 12.3764 8.64712 12.3504 8.60644C12.3243 8.56577 12.3059 8.51833 12.2967 8.46764C12.2874 8.41695 12.2875 8.36432 12.2969 8.31368L12.4242 7.63032C12.5408 7.00347 12.5782 6.35768 12.5352 5.71663L12.5118 5.36832C12.4867 4.99464 12.3557 4.64409 12.1419 4.37895C11.9464 4.13636 11.6813 4.00005 11.4047 4H11.3437C11.1764 4 11.0224 4.11242 10.9415 4.29368L10.2646 5.80474C9.96118 6.48243 9.50887 7.03929 8.9603 7.41053L7.26524 8.55684C7.18488 8.61124 7.11783 8.69152 7.07115 8.78922C7.02447 8.88692 6.99989 8.99843 7 9.112V15.3684C7 15.5359 7.05364 15.6966 7.14911 15.815C7.24459 15.9335 7.37408 16 7.5091 16H14.1241C14.235 16 14.3428 15.955 14.4312 15.872C14.5196 15.7891 14.5837 15.6725 14.6139 15.5402Z" fill="white" stroke="#2A81FD" stroke-linecap="round" stroke-linejoin="round"/>
<rect x="4" y="9" width="3" height="7" rx="1" fill="#2A81FD" stroke="#2A81FD"/>
</svg>
