<svg width="20" height="20" viewBox="0 0 20 20" fill="none" xmlns="http://www.w3.org/2000/svg">
<path d="M3.99117 5.48738C4.20672 4.8946 4.77009 4.5 5.40085 4.5H16C16.8284 4.5 17.5 5.17157 17.5 6V13C17.5 13.8284 16.8284 14.5 16 14.5H2.8554C1.81445 14.5 1.08997 13.4657 1.44571 12.4874L3.99117 5.48738Z" fill="white" stroke="black"/>
<circle cx="6" cy="15" r="1.5" fill="white" stroke="black"/>
<circle cx="14" cy="15" r="1.5" fill="white" stroke="black"/>
<path d="M10.9796 6.5116C10.7713 6.46593 10.5569 6.55743 10.4458 6.73944C10.3346 6.92146 10.3512 7.15393 10.487 7.31837C10.7693 7.66021 10.9311 8.07695 10.9311 8.5238C10.9311 9.60576 9.95469 10.5594 8.65178 10.5594C8.46449 10.5594 8.28254 10.5383 8.10709 10.4998C7.89876 10.4541 7.68438 10.5456 7.57324 10.7277C7.46211 10.9097 7.47868 11.1422 7.61452 11.3067C8.21901 12.0384 9.16755 12.5 10.2207 12.5C11.9876 12.5 13.5 11.1831 13.5 9.46442C13.5 7.99987 12.3935 6.82154 10.9796 6.5116Z" fill="white" stroke="#111111" stroke-linejoin="round"/>
<path d="M3 9.5H4.60496C5.11451 9.5 5.54257 9.11686 5.59884 8.61043L6 5" stroke="black" stroke-linecap="round"/>
</svg>
