<svg width="31" height="26" viewBox="0 0 31 26" fill="none" xmlns="http://www.w3.org/2000/svg">
<mask id="path-1-inside-1_3112_43078" fill="white">
<path fill-rule="evenodd" clip-rule="evenodd" d="M5.5 22C2.73858 22 0.5 19.7614 0.5 17V5C0.5 2.23858 2.73858 0 5.5 0H25.5C28.2614 0 30.5 2.23858 30.5 5V17C30.5 19.7614 28.2614 22 25.5 22H18.5082L16.9787 24.4726C16.1969 25.7364 14.3587 25.7364 13.5769 24.4726L12.0474 22H5.5Z"/>
</mask>
<path d="M18.5082 22V20.5H17.6722L17.2325 21.2109L18.5082 22ZM16.9787 24.4726L15.703 23.6834V23.6835L16.9787 24.4726ZM13.5769 24.4726L12.3012 25.2617H12.3012L13.5769 24.4726ZM12.0474 22L13.3231 21.2109L12.8833 20.5H12.0474V22ZM-1 17C-1 20.5898 1.91015 23.5 5.5 23.5V20.5C3.567 20.5 2 18.933 2 17H-1ZM-1 5V17H2V5H-1ZM5.5 -1.5C1.91015 -1.5 -1 1.41015 -1 5H2C2 3.067 3.567 1.5 5.5 1.5V-1.5ZM25.5 -1.5H5.5V1.5H25.5V-1.5ZM32 5C32 1.41015 29.0898 -1.5 25.5 -1.5V1.5C27.433 1.5 29 3.067 29 5H32ZM32 17V5H29V17H32ZM25.5 23.5C29.0898 23.5 32 20.5898 32 17H29C29 18.933 27.433 20.5 25.5 20.5V23.5ZM18.5082 23.5H25.5V20.5H18.5082V23.5ZM18.2543 25.2617L19.7838 22.7891L17.2325 21.2109L15.703 23.6834L18.2543 25.2617ZM12.3012 25.2617C13.6693 27.4733 16.8862 27.4733 18.2543 25.2617L15.703 23.6835C15.5076 23.9994 15.048 23.9994 14.8526 23.6834L12.3012 25.2617ZM10.7717 22.7891L12.3012 25.2617L14.8526 23.6834L13.3231 21.2109L10.7717 22.7891ZM5.5 23.5H12.0474V20.5H5.5V23.5Z" fill="#9E9E9E" mask="url(#path-1-inside-1_3112_43078)"/>
<circle cx="9.5" cy="11.5" r="1.5" fill="#9E9E9E"/>
<circle cx="15.5" cy="11.5" r="1.5" fill="#9E9E9E"/>
<circle cx="21.5" cy="11.5" r="1.5" fill="#9E9E9E"/>
</svg>
