<svg width="56" height="15" viewBox="0 0 56 15" fill="none" xmlns="http://www.w3.org/2000/svg">
<path d="M4.448 14.0536C3.94667 14.0429 3.50933 13.9416 3.136 13.7496C2.77333 13.5682 2.47467 13.3336 2.24 13.0456C2.00533 12.7576 1.82933 12.4322 1.712 12.0696C1.60533 11.7176 1.552 11.3549 1.552 10.9816C1.552 10.6082 1.6 10.2402 1.696 9.87757C1.80267 9.5149 1.968 9.1949 2.192 8.91757C2.42667 8.62957 2.73067 8.40024 3.104 8.22957C3.47733 8.04824 3.936 7.95224 4.48 7.94157C4.98133 7.9309 5.46667 7.92557 5.936 7.92557C6.40533 7.92557 6.86933 7.92557 7.328 7.92557C7.79733 7.92557 8.26667 7.92557 8.736 7.92557C9.216 7.92557 9.70667 7.9309 10.208 7.94157C10.752 7.94157 11.2107 8.03224 11.584 8.21357C11.9573 8.38424 12.256 8.61357 12.48 8.90157C12.7147 9.18957 12.88 9.5149 12.976 9.87757C13.0827 10.2402 13.136 10.6082 13.136 10.9816C13.136 11.3549 13.0773 11.7176 12.96 12.0696C12.8533 12.4322 12.6827 12.7576 12.448 13.0456C12.2133 13.3336 11.9093 13.5682 11.536 13.7496C11.1733 13.9416 10.7413 14.0429 10.24 14.0536C9.22667 14.0749 8.26133 14.0856 7.344 14.0856C6.42667 14.0856 5.46133 14.0749 4.448 14.0536ZM9.68 7.17357H8.08L7.328 3.98957L7.232 3.46157L7.136 3.94157L6.368 7.17357H4.16L3.584 3.98957L3.472 3.42957L2.304 7.17357H0L2.096 0.38957H4.224L4.944 4.29357L6 0.38957H8.128L9.68 7.17357ZM13.088 7.57357H10.576V0.35757H13.088V7.57357ZM9.84 11.8136C10.1493 11.7922 10.3733 11.7176 10.512 11.5896C10.6507 11.4722 10.72 11.2696 10.72 10.9816C10.72 10.6829 10.6507 10.4749 10.512 10.3576C10.3733 10.2296 10.1493 10.1549 9.84 10.1336C9.38133 10.1229 8.94933 10.1176 8.544 10.1176C8.13867 10.1069 7.73867 10.1016 7.344 10.1016C6.94933 10.1016 6.54933 10.1069 6.144 10.1176C5.73867 10.1176 5.30667 10.1229 4.848 10.1336C4.53867 10.1549 4.31467 10.2296 4.176 10.3576C4.03733 10.4749 3.968 10.6829 3.968 10.9816C3.968 11.2696 4.03733 11.4722 4.176 11.5896C4.31467 11.7176 4.53867 11.7922 4.848 11.8136C5.30667 11.8242 5.73867 11.8296 6.144 11.8296C6.54933 11.8402 6.94933 11.8456 7.344 11.8456C7.73867 11.8456 8.13867 11.8402 8.544 11.8296C8.94933 11.8296 9.38133 11.8242 9.84 11.8136Z" fill="url(#paint0_linear_2176_107121)"/>
<path d="M18.6943 14.0536C18.1929 14.0429 17.7556 13.9416 17.3823 13.7496C17.0196 13.5682 16.7209 13.3336 16.4863 13.0456C16.2516 12.7576 16.0756 12.4322 15.9583 12.0696C15.8516 11.7176 15.7983 11.3549 15.7983 10.9816C15.7983 10.6082 15.8463 10.2402 15.9423 9.87757C16.0489 9.5149 16.2143 9.1949 16.4383 8.91757C16.6729 8.62957 16.9769 8.40024 17.3503 8.22957C17.7236 8.04824 18.1823 7.95224 18.7263 7.94157C19.2276 7.9309 19.7129 7.92557 20.1823 7.92557C20.6516 7.92557 21.1156 7.92557 21.5743 7.92557C22.0436 7.92557 22.5129 7.92557 22.9823 7.92557C23.4623 7.92557 23.9529 7.9309 24.4543 7.94157C24.9983 7.94157 25.4569 8.03224 25.8303 8.21357C26.2036 8.38424 26.5023 8.61357 26.7263 8.90157C26.9609 9.18957 27.1263 9.5149 27.2223 9.87757C27.3289 10.2402 27.3823 10.6082 27.3823 10.9816C27.3823 11.3549 27.3236 11.7176 27.2063 12.0696C27.0996 12.4322 26.9289 12.7576 26.6943 13.0456C26.4596 13.3336 26.1556 13.5682 25.7823 13.7496C25.4196 13.9416 24.9876 14.0429 24.4863 14.0536C23.4729 14.0749 22.5076 14.0856 21.5903 14.0856C20.6729 14.0856 19.7076 14.0749 18.6943 14.0536ZM23.9263 7.17357H22.3263L21.5743 3.98957L21.4783 3.46157L21.3823 3.94157L20.6143 7.17357H18.4063L17.8303 3.98957L17.7183 3.42957L16.5503 7.17357H14.2463L16.3423 0.38957H18.4703L19.1903 4.29357L20.2463 0.38957H22.3743L23.9263 7.17357ZM27.3343 7.57357H24.8223V0.35757H27.3343V7.57357ZM24.0863 11.8136C24.3956 11.7922 24.6196 11.7176 24.7583 11.5896C24.8969 11.4722 24.9663 11.2696 24.9663 10.9816C24.9663 10.6829 24.8969 10.4749 24.7583 10.3576C24.6196 10.2296 24.3956 10.1549 24.0863 10.1336C23.6276 10.1229 23.1956 10.1176 22.7903 10.1176C22.3849 10.1069 21.9849 10.1016 21.5903 10.1016C21.1956 10.1016 20.7956 10.1069 20.3903 10.1176C19.9849 10.1176 19.5529 10.1229 19.0943 10.1336C18.7849 10.1549 18.5609 10.2296 18.4223 10.3576C18.2836 10.4749 18.2143 10.6829 18.2143 10.9816C18.2143 11.2696 18.2836 11.4722 18.4223 11.5896C18.5609 11.7176 18.7849 11.7922 19.0943 11.8136C19.5529 11.8242 19.9849 11.8296 20.3903 11.8296C20.7956 11.8402 21.1956 11.8456 21.5903 11.8456C21.9849 11.8456 22.3849 11.8402 22.7903 11.8296C23.1956 11.8296 23.6276 11.8242 24.0863 11.8136Z" fill="url(#paint1_linear_2176_107121)"/>
<path d="M31.3565 0.35757V5.38157H32.6685V0.37357H35.1005V13.5736H28.9245V0.35757H31.3565ZM38.3965 5.36557H39.2445V0.35757H41.6765V13.7336H39.2445V7.79757H38.3965V13.7336H35.9645V0.35757H38.3965V5.36557ZM31.3565 11.3656H32.6685V7.58957H31.3565V11.3656Z" fill="url(#paint2_linear_2176_107121)"/>
<path d="M46.3547 14.1016C45.5014 14.0696 44.8294 13.8082 44.3387 13.3176C43.8587 12.8269 43.6187 12.2082 43.6187 11.4616C43.6187 10.7042 43.8427 10.0856 44.2907 9.60557C44.7494 9.12557 45.4481 8.8749 46.3867 8.85357C48.4027 8.82157 50.4187 8.82157 52.4347 8.85357C52.8934 8.85357 53.2934 8.9229 53.6348 9.06157C53.9868 9.18957 54.2801 9.3709 54.5148 9.60557C54.7494 9.82957 54.9201 10.1016 55.0267 10.4216C55.1441 10.7416 55.2028 11.0882 55.2028 11.4616C55.2028 12.2082 54.9574 12.8269 54.4668 13.3176C53.9868 13.8082 53.3201 14.0696 52.4668 14.1016C50.4294 14.1549 48.3921 14.1549 46.3547 14.1016ZM50.8827 4.03757V6.14957H55.8908V8.21357H42.9627V6.14957H47.9707V4.03757H50.8827ZM55.5387 5.22157H52.5788L49.7308 2.05357L49.6668 2.00557L49.3628 2.37357L46.7067 5.22157H43.0747L47.7467 0.30957H50.9147L55.5387 5.22157ZM51.9067 12.0376C52.2161 12.0162 52.4134 11.9469 52.4987 11.8296C52.5841 11.7122 52.6268 11.5896 52.6268 11.4616C52.6268 11.3229 52.5841 11.1949 52.4987 11.0776C52.4134 10.9602 52.2161 10.8909 51.9067 10.8696C51.4481 10.8589 51.0161 10.8536 50.6108 10.8536C50.2054 10.8429 49.8054 10.8376 49.4108 10.8376C49.0161 10.8376 48.6161 10.8429 48.2108 10.8536C47.8054 10.8536 47.3734 10.8589 46.9147 10.8696C46.6054 10.8909 46.4081 10.9602 46.3228 11.0776C46.2374 11.1949 46.1947 11.3229 46.1947 11.4616C46.1947 11.5896 46.2374 11.7122 46.3228 11.8296C46.4081 11.9469 46.6054 12.0162 46.9147 12.0376C47.3734 12.0482 47.8054 12.0536 48.2108 12.0536C48.6161 12.0642 49.0161 12.0696 49.4108 12.0696C49.8054 12.0696 50.2054 12.0642 50.6108 12.0536C51.0161 12.0536 51.4481 12.0482 51.9067 12.0376Z" fill="url(#paint3_linear_2176_107121)"/>
<defs>
<linearGradient id="paint0_linear_2176_107121" x1="14.6149" y1="1.54157" x2="33.6797" y2="17.3722" gradientUnits="userSpaceOnUse">
<stop stop-color="#4BB3EE"/>
<stop offset="1" stop-color="#2C7AE8"/>
</linearGradient>
<linearGradient id="paint1_linear_2176_107121" x1="14.6149" y1="1.54157" x2="33.6797" y2="17.3722" gradientUnits="userSpaceOnUse">
<stop stop-color="#4BB3EE"/>
<stop offset="1" stop-color="#2C7AE8"/>
</linearGradient>
<linearGradient id="paint2_linear_2176_107121" x1="14.6149" y1="1.54157" x2="33.6797" y2="17.3722" gradientUnits="userSpaceOnUse">
<stop stop-color="#4BB3EE"/>
<stop offset="1" stop-color="#2C7AE8"/>
</linearGradient>
<linearGradient id="paint3_linear_2176_107121" x1="14.6149" y1="1.54157" x2="33.6797" y2="17.3722" gradientUnits="userSpaceOnUse">
<stop stop-color="#4BB3EE"/>
<stop offset="1" stop-color="#2C7AE8"/>
</linearGradient>
</defs>
</svg>
